<?xml version="1.0" encoding="utf-8" standalone="no"?>
<!DOCTYPE svg PUBLIC "-//W3C//DTD SVG 1.1//EN"
  "http://www.w3.org/Graphics/SVG/1.1/DTD/svg11.dtd">
<svg xmlns:xlink="http://www.w3.org/1999/xlink" width="360pt" height="194.4pt" viewBox="0 0 360 194.4" xmlns="http://www.w3.org/2000/svg" version="1.1">
 <metadata>
  <rdf:RDF xmlns:dc="http://purl.org/dc/elements/1.1/" xmlns:cc="http://creativecommons.org/ns#" xmlns:rdf="http://www.w3.org/1999/02/22-rdf-syntax-ns#">
   <cc:Work>
    <dc:type rdf:resource="http://purl.org/dc/dcmitype/StillImage"/>
    <dc:date>2023-02-27T16:02:34.302637</dc:date>
    <dc:format>image/svg+xml</dc:format>
    <dc:creator>
     <cc:Agent>
      <dc:title>Matplotlib v3.6.3, https://matplotlib.org/</dc:title>
     </cc:Agent>
    </dc:creator>
   </cc:Work>
  </rdf:RDF>
 </metadata>
 <defs>
  <style type="text/css">*{stroke-linejoin: round; stroke-linecap: butt}</style>
 </defs>
 <g id="figure_1">
  <g id="patch_1">
   <path d="M 0 194.4 
L 360 194.4 
L 360 0 
L 0 0 
z
" style="fill: #ffffff"/>
  </g>
  <g id="axes_1">
   <g id="patch_2">
    <path d="M 39.58149 161.04351 
L 350.63726 161.04351 
L 350.63726 18.118365 
L 39.58149 18.118365 
z
" style="fill: #ffffff"/>
   </g>
   <g id="patch_3">
    <path d="M -224.815915 161.04351 
L -220.227842 161.04351 
L -220.227842 160.954252 
L -224.815915 160.954252 
z
" clip-path="url(#p334e36cd6d)" style="fill: #1f77b4; opacity: 0.75"/>
   </g>
   <g id="patch_4">
    <path d="M -220.227842 161.04351 
L -215.639769 161.04351 
L -215.639769 161.04351 
L -220.227842 161.04351 
z
" clip-path="url(#p334e36cd6d)" style="fill: #1f77b4; opacity: 0.75"/>
   </g>
   <g id="patch_5">
    <path d="M -215.639769 161.04351 
L -211.051697 161.04351 
L -211.051697 161.04351 
L -215.639769 161.04351 
z
" clip-path="url(#p334e36cd6d)" style="fill: #1f77b4; opacity: 0.75"/>
   </g>
   <g id="patch_6">
    <path d="M -211.051697 161.04351 
L -206.463624 161.04351 
L -206.463624 161.04351 
L -211.051697 161.04351 
z
" clip-path="url(#p334e36cd6d)" style="fill: #1f77b4; opacity: 0.75"/>
   </g>
   <g id="patch_7">
    <path d="M -206.463624 161.04351 
L -201.875551 161.04351 
L -201.875551 161.04351 
L -206.463624 161.04351 
z
" clip-path="url(#p334e36cd6d)" style="fill: #1f77b4; opacity: 0.75"/>
   </g>
   <g id="patch_8">
    <path d="M -201.875551 161.04351 
L -197.287479 161.04351 
L -197.287479 161.04351 
L -201.875551 161.04351 
z
" clip-path="url(#p334e36cd6d)" style="fill: #1f77b4; opacity: 0.75"/>
   </g>
   <g id="patch_9">
    <path d="M -197.287479 161.04351 
L -192.699406 161.04351 
L -192.699406 161.04351 
L -197.287479 161.04351 
z
" clip-path="url(#p334e36cd6d)" style="fill: #1f77b4; opacity: 0.75"/>
   </g>
   <g id="patch_10">
    <path d="M -192.699406 161.04351 
L -188.111334 161.04351 
L -188.111334 161.04351 
L -192.699406 161.04351 
z
" clip-path="url(#p334e36cd6d)" style="fill: #1f77b4; opacity: 0.75"/>
   </g>
   <g id="patch_11">
    <path d="M -188.111334 161.04351 
L -183.523261 161.04351 
L -183.523261 161.04351 
L -188.111334 161.04351 
z
" clip-path="url(#p334e36cd6d)" style="fill: #1f77b4; opacity: 0.75"/>
   </g>
   <g id="patch_12">
    <path d="M -183.523261 161.04351 
L -178.935188 161.04351 
L -178.935188 161.04351 
L -183.523261 161.04351 
z
" clip-path="url(#p334e36cd6d)" style="fill: #1f77b4; opacity: 0.75"/>
   </g>
   <g id="patch_13">
    <path d="M -178.935188 161.04351 
L -174.347116 161.04351 
L -174.347116 161.04351 
L -178.935188 161.04351 
z
" clip-path="url(#p334e36cd6d)" style="fill: #1f77b4; opacity: 0.75"/>
   </g>
   <g id="patch_14">
    <path d="M -174.347116 161.04351 
L -169.759043 161.04351 
L -169.759043 160.597218 
L -174.347116 160.597218 
z
" clip-path="url(#p334e36cd6d)" style="fill: #1f77b4; opacity: 0.75"/>
   </g>
   <g id="patch_15">
    <path d="M -169.759043 161.04351 
L -165.170971 161.04351 
L -165.170971 161.04351 
L -169.759043 161.04351 
z
" clip-path="url(#p334e36cd6d)" style="fill: #1f77b4; opacity: 0.75"/>
   </g>
   <g id="patch_16">
    <path d="M -165.170971 161.04351 
L -160.582898 161.04351 
L -160.582898 161.04351 
L -165.170971 161.04351 
z
" clip-path="url(#p334e36cd6d)" style="fill: #1f77b4; opacity: 0.75"/>
   </g>
   <g id="patch_17">
    <path d="M -160.582898 161.04351 
L -155.994825 161.04351 
L -155.994825 161.04351 
L -160.582898 161.04351 
z
" clip-path="url(#p334e36cd6d)" style="fill: #1f77b4; opacity: 0.75"/>
   </g>
   <g id="patch_18">
    <path d="M -155.994825 161.04351 
L -151.406753 161.04351 
L -151.406753 161.04351 
L -155.994825 161.04351 
z
" clip-path="url(#p334e36cd6d)" style="fill: #1f77b4; opacity: 0.75"/>
   </g>
   <g id="patch_19">
    <path d="M -151.406753 161.04351 
L -146.81868 161.04351 
L -146.81868 160.954252 
L -151.406753 160.954252 
z
" clip-path="url(#p334e36cd6d)" style="fill: #1f77b4; opacity: 0.75"/>
   </g>
   <g id="patch_20">
    <path d="M -146.81868 161.04351 
L -142.230608 161.04351 
L -142.230608 161.04351 
L -146.81868 161.04351 
z
" clip-path="url(#p334e36cd6d)" style="fill: #1f77b4; opacity: 0.75"/>
   </g>
   <g id="patch_21">
    <path d="M -142.230608 161.04351 
L -137.642535 161.04351 
L -137.642535 160.418701 
L -142.230608 160.418701 
z
" clip-path="url(#p334e36cd6d)" style="fill: #1f77b4; opacity: 0.75"/>
   </g>
   <g id="patch_22">
    <path d="M -137.642535 161.04351 
L -133.054462 161.04351 
L -133.054462 161.04351 
L -137.642535 161.04351 
z
" clip-path="url(#p334e36cd6d)" style="fill: #1f77b4; opacity: 0.75"/>
   </g>
   <g id="patch_23">
    <path d="M -133.054462 161.04351 
L -128.46639 161.04351 
L -128.46639 161.04351 
L -133.054462 161.04351 
z
" clip-path="url(#p334e36cd6d)" style="fill: #1f77b4; opacity: 0.75"/>
   </g>
   <g id="patch_24">
    <path d="M -128.46639 161.04351 
L -123.878317 161.04351 
L -123.878317 161.04351 
L -128.46639 161.04351 
z
" clip-path="url(#p334e36cd6d)" style="fill: #1f77b4; opacity: 0.75"/>
   </g>
   <g id="patch_25">
    <path d="M -123.878317 161.04351 
L -119.290245 161.04351 
L -119.290245 161.04351 
L -123.878317 161.04351 
z
" clip-path="url(#p334e36cd6d)" style="fill: #1f77b4; opacity: 0.75"/>
   </g>
   <g id="patch_26">
    <path d="M -119.290245 161.04351 
L -114.702172 161.04351 
L -114.702172 161.04351 
L -119.290245 161.04351 
z
" clip-path="url(#p334e36cd6d)" style="fill: #1f77b4; opacity: 0.75"/>
   </g>
   <g id="patch_27">
    <path d="M -114.702172 161.04351 
L -110.114099 161.04351 
L -110.114099 161.04351 
L -114.702172 161.04351 
z
" clip-path="url(#p334e36cd6d)" style="fill: #1f77b4; opacity: 0.75"/>
   </g>
   <g id="patch_28">
    <path d="M -110.114099 161.04351 
L -105.526027 161.04351 
L -105.526027 161.04351 
L -110.114099 161.04351 
z
" clip-path="url(#p334e36cd6d)" style="fill: #1f77b4; opacity: 0.75"/>
   </g>
   <g id="patch_29">
    <path d="M -105.526027 161.04351 
L -100.937954 161.04351 
L -100.937954 161.04351 
L -105.526027 161.04351 
z
" clip-path="url(#p334e36cd6d)" style="fill: #1f77b4; opacity: 0.75"/>
   </g>
   <g id="patch_30">
    <path d="M -100.937954 161.04351 
L -96.349881 161.04351 
L -96.349881 160.240184 
L -100.937954 160.240184 
z
" clip-path="url(#p334e36cd6d)" style="fill: #1f77b4; opacity: 0.75"/>
   </g>
   <g id="patch_31">
    <path d="M -96.349881 161.04351 
L -91.761809 161.04351 
L -91.761809 160.775735 
L -96.349881 160.775735 
z
" clip-path="url(#p334e36cd6d)" style="fill: #1f77b4; opacity: 0.75"/>
   </g>
   <g id="patch_32">
    <path d="M -91.761809 161.04351 
L -87.173736 161.04351 
L -87.173736 161.04351 
L -91.761809 161.04351 
z
" clip-path="url(#p334e36cd6d)" style="fill: #1f77b4; opacity: 0.75"/>
   </g>
   <g id="patch_33">
    <path d="M -87.173736 161.04351 
L -82.585664 161.04351 
L -82.585664 161.04351 
L -87.173736 161.04351 
z
" clip-path="url(#p334e36cd6d)" style="fill: #1f77b4; opacity: 0.75"/>
   </g>
   <g id="patch_34">
    <path d="M -82.585664 161.04351 
L -77.997591 161.04351 
L -77.997591 161.04351 
L -82.585664 161.04351 
z
" clip-path="url(#p334e36cd6d)" style="fill: #1f77b4; opacity: 0.75"/>
   </g>
   <g id="patch_35">
    <path d="M -77.997591 161.04351 
L -73.409518 161.04351 
L -73.409518 161.04351 
L -77.997591 161.04351 
z
" clip-path="url(#p334e36cd6d)" style="fill: #1f77b4; opacity: 0.75"/>
   </g>
   <g id="patch_36">
    <path d="M -73.409518 161.04351 
L -68.821446 161.04351 
L -68.821446 161.04351 
L -73.409518 161.04351 
z
" clip-path="url(#p334e36cd6d)" style="fill: #1f77b4; opacity: 0.75"/>
   </g>
   <g id="patch_37">
    <path d="M -68.821446 161.04351 
L -64.233373 161.04351 
L -64.233373 161.04351 
L -68.821446 161.04351 
z
" clip-path="url(#p334e36cd6d)" style="fill: #1f77b4; opacity: 0.75"/>
   </g>
   <g id="patch_38">
    <path d="M -64.233373 161.04351 
L -59.645301 161.04351 
L -59.645301 161.04351 
L -64.233373 161.04351 
z
" clip-path="url(#p334e36cd6d)" style="fill: #1f77b4; opacity: 0.75"/>
   </g>
   <g id="patch_39">
    <path d="M -59.645301 161.04351 
L -55.057228 161.04351 
L -55.057228 161.04351 
L -59.645301 161.04351 
z
" clip-path="url(#p334e36cd6d)" style="fill: #1f77b4; opacity: 0.75"/>
   </g>
   <g id="patch_40">
    <path d="M -55.057228 161.04351 
L -50.469155 161.04351 
L -50.469155 161.04351 
L -55.057228 161.04351 
z
" clip-path="url(#p334e36cd6d)" style="fill: #1f77b4; opacity: 0.75"/>
   </g>
   <g id="patch_41">
    <path d="M -50.469155 161.04351 
L -45.881083 161.04351 
L -45.881083 161.04351 
L -50.469155 161.04351 
z
" clip-path="url(#p334e36cd6d)" style="fill: #1f77b4; opacity: 0.75"/>
   </g>
   <g id="patch_42">
    <path d="M -45.881083 161.04351 
L -41.29301 161.04351 
L -41.29301 161.04351 
L -45.881083 161.04351 
z
" clip-path="url(#p334e36cd6d)" style="fill: #1f77b4; opacity: 0.75"/>
   </g>
   <g id="patch_43">
    <path d="M -41.29301 161.04351 
L -36.704938 161.04351 
L -36.704938 161.04351 
L -41.29301 161.04351 
z
" clip-path="url(#p334e36cd6d)" style="fill: #1f77b4; opacity: 0.75"/>
   </g>
   <g id="patch_44">
    <path d="M -36.704938 161.04351 
L -32.116865 161.04351 
L -32.116865 161.04351 
L -36.704938 161.04351 
z
" clip-path="url(#p334e36cd6d)" style="fill: #1f77b4; opacity: 0.75"/>
   </g>
   <g id="patch_45">
    <path d="M -32.116865 161.04351 
L -27.528792 161.04351 
L -27.528792 161.04351 
L -32.116865 161.04351 
z
" clip-path="url(#p334e36cd6d)" style="fill: #1f77b4; opacity: 0.75"/>
   </g>
   <g id="patch_46">
    <path d="M -27.528792 161.04351 
L -22.94072 161.04351 
L -22.94072 161.04351 
L -27.528792 161.04351 
z
" clip-path="url(#p334e36cd6d)" style="fill: #1f77b4; opacity: 0.75"/>
   </g>
   <g id="patch_47">
    <path d="M -22.94072 161.04351 
L -18.352647 161.04351 
L -18.352647 161.04351 
L -22.94072 161.04351 
z
" clip-path="url(#p334e36cd6d)" style="fill: #1f77b4; opacity: 0.75"/>
   </g>
   <g id="patch_48">
    <path d="M -18.352647 161.04351 
L -13.764575 161.04351 
L -13.764575 161.04351 
L -18.352647 161.04351 
z
" clip-path="url(#p334e36cd6d)" style="fill: #1f77b4; opacity: 0.75"/>
   </g>
   <g id="patch_49">
    <path d="M -13.764575 161.04351 
L -9.176502 161.04351 
L -9.176502 161.04351 
L -13.764575 161.04351 
z
" clip-path="url(#p334e36cd6d)" style="fill: #1f77b4; opacity: 0.75"/>
   </g>
   <g id="patch_50">
    <path d="M -9.176502 161.04351 
L -4.588429 161.04351 
L -4.588429 161.04351 
L -9.176502 161.04351 
z
" clip-path="url(#p334e36cd6d)" style="fill: #1f77b4; opacity: 0.75"/>
   </g>
   <g id="patch_51">
    <path d="M -4.588429 161.04351 
L -0.000357 161.04351 
L -0.000357 161.04351 
L -4.588429 161.04351 
z
" clip-path="url(#p334e36cd6d)" style="fill: #1f77b4; opacity: 0.75"/>
   </g>
   <g id="patch_52">
    <path d="M -0.000357 161.04351 
L 4.587716 161.04351 
L 4.587716 161.04351 
L -0.000357 161.04351 
z
" clip-path="url(#p334e36cd6d)" style="fill: #1f77b4; opacity: 0.75"/>
   </g>
   <g id="patch_53">
    <path d="M 4.587716 161.04351 
L 9.175788 161.04351 
L 9.175788 161.04351 
L 4.587716 161.04351 
z
" clip-path="url(#p334e36cd6d)" style="fill: #1f77b4; opacity: 0.75"/>
   </g>
   <g id="patch_54">
    <path d="M 9.175788 161.04351 
L 13.763861 161.04351 
L 13.763861 161.04351 
L 9.175788 161.04351 
z
" clip-path="url(#p334e36cd6d)" style="fill: #1f77b4; opacity: 0.75"/>
   </g>
   <g id="patch_55">
    <path d="M 13.763861 161.04351 
L 18.351934 161.04351 
L 18.351934 161.04351 
L 13.763861 161.04351 
z
" clip-path="url(#p334e36cd6d)" style="fill: #1f77b4; opacity: 0.75"/>
   </g>
   <g id="patch_56">
    <path d="M 18.351934 161.04351 
L 22.940006 161.04351 
L 22.940006 161.04351 
L 18.351934 161.04351 
z
" clip-path="url(#p334e36cd6d)" style="fill: #1f77b4; opacity: 0.75"/>
   </g>
   <g id="patch_57">
    <path d="M 22.940006 161.04351 
L 27.528079 161.04351 
L 27.528079 161.04351 
L 22.940006 161.04351 
z
" clip-path="url(#p334e36cd6d)" style="fill: #1f77b4; opacity: 0.75"/>
   </g>
   <g id="patch_58">
    <path d="M 27.528079 161.04351 
L 32.116152 161.04351 
L 32.116152 160.329442 
L 27.528079 160.329442 
z
" clip-path="url(#p334e36cd6d)" style="fill: #1f77b4; opacity: 0.75"/>
   </g>
   <g id="patch_59">
    <path d="M 32.116152 161.04351 
L 36.704224 161.04351 
L 36.704224 161.04351 
L 32.116152 161.04351 
z
" clip-path="url(#p334e36cd6d)" style="fill: #1f77b4; opacity: 0.75"/>
   </g>
   <g id="patch_60">
    <path d="M 36.704224 161.04351 
L 41.292297 161.04351 
L 41.292297 161.04351 
L 36.704224 161.04351 
z
" clip-path="url(#p334e36cd6d)" style="fill: #1f77b4; opacity: 0.75"/>
   </g>
   <g id="patch_61">
    <path d="M 41.292297 161.04351 
L 45.880369 161.04351 
L 45.880369 161.04351 
L 41.292297 161.04351 
z
" clip-path="url(#p334e36cd6d)" style="fill: #1f77b4; opacity: 0.75"/>
   </g>
   <g id="patch_62">
    <path d="M 45.880369 161.04351 
L 50.468442 161.04351 
L 50.468442 161.04351 
L 45.880369 161.04351 
z
" clip-path="url(#p334e36cd6d)" style="fill: #1f77b4; opacity: 0.75"/>
   </g>
   <g id="patch_63">
    <path d="M 50.468442 161.04351 
L 55.056515 161.04351 
L 55.056515 161.04351 
L 50.468442 161.04351 
z
" clip-path="url(#p334e36cd6d)" style="fill: #1f77b4; opacity: 0.75"/>
   </g>
   <g id="patch_64">
    <path d="M 55.056515 161.04351 
L 59.644587 161.04351 
L 59.644587 160.329442 
L 55.056515 160.329442 
z
" clip-path="url(#p334e36cd6d)" style="fill: #1f77b4; opacity: 0.75"/>
   </g>
   <g id="patch_65">
    <path d="M 59.644587 161.04351 
L 64.23266 161.04351 
L 64.23266 160.864993 
L 59.644587 160.864993 
z
" clip-path="url(#p334e36cd6d)" style="fill: #1f77b4; opacity: 0.75"/>
   </g>
   <g id="patch_66">
    <path d="M 64.23266 161.04351 
L 68.820732 161.04351 
L 68.820732 161.04351 
L 64.23266 161.04351 
z
" clip-path="url(#p334e36cd6d)" style="fill: #1f77b4; opacity: 0.75"/>
   </g>
   <g id="patch_67">
    <path d="M 68.820732 161.04351 
L 73.408805 161.04351 
L 73.408805 161.04351 
L 68.820732 161.04351 
z
" clip-path="url(#p334e36cd6d)" style="fill: #1f77b4; opacity: 0.75"/>
   </g>
   <g id="patch_68">
    <path d="M 73.408805 161.04351 
L 77.996878 161.04351 
L 77.996878 161.04351 
L 73.408805 161.04351 
z
" clip-path="url(#p334e36cd6d)" style="fill: #1f77b4; opacity: 0.75"/>
   </g>
   <g id="patch_69">
    <path d="M 77.996878 161.04351 
L 82.58495 161.04351 
L 82.58495 160.686476 
L 77.996878 160.686476 
z
" clip-path="url(#p334e36cd6d)" style="fill: #1f77b4; opacity: 0.75"/>
   </g>
   <g id="patch_70">
    <path d="M 82.58495 161.04351 
L 87.173023 161.04351 
L 87.173023 160.954252 
L 82.58495 160.954252 
z
" clip-path="url(#p334e36cd6d)" style="fill: #1f77b4; opacity: 0.75"/>
   </g>
   <g id="patch_71">
    <path d="M 87.173023 161.04351 
L 91.761095 161.04351 
L 91.761095 161.04351 
L 87.173023 161.04351 
z
" clip-path="url(#p334e36cd6d)" style="fill: #1f77b4; opacity: 0.75"/>
   </g>
   <g id="patch_72">
    <path d="M 91.761095 161.04351 
L 96.349168 161.04351 
L 96.349168 160.775735 
L 91.761095 160.775735 
z
" clip-path="url(#p334e36cd6d)" style="fill: #1f77b4; opacity: 0.75"/>
   </g>
   <g id="patch_73">
    <path d="M 96.349168 161.04351 
L 100.937241 161.04351 
L 100.937241 161.04351 
L 96.349168 161.04351 
z
" clip-path="url(#p334e36cd6d)" style="fill: #1f77b4; opacity: 0.75"/>
   </g>
   <g id="patch_74">
    <path d="M 100.937241 161.04351 
L 105.525313 161.04351 
L 105.525313 160.864993 
L 100.937241 160.864993 
z
" clip-path="url(#p334e36cd6d)" style="fill: #1f77b4; opacity: 0.75"/>
   </g>
   <g id="patch_75">
    <path d="M 105.525313 161.04351 
L 110.113386 161.04351 
L 110.113386 161.04351 
L 105.525313 161.04351 
z
" clip-path="url(#p334e36cd6d)" style="fill: #1f77b4; opacity: 0.75"/>
   </g>
   <g id="patch_76">
    <path d="M 110.113386 161.04351 
L 114.701458 161.04351 
L 114.701458 161.04351 
L 110.113386 161.04351 
z
" clip-path="url(#p334e36cd6d)" style="fill: #1f77b4; opacity: 0.75"/>
   </g>
   <g id="patch_77">
    <path d="M 114.701458 161.04351 
L 119.289531 161.04351 
L 119.289531 161.04351 
L 114.701458 161.04351 
z
" clip-path="url(#p334e36cd6d)" style="fill: #1f77b4; opacity: 0.75"/>
   </g>
   <g id="patch_78">
    <path d="M 119.289531 161.04351 
L 123.877604 161.04351 
L 123.877604 161.04351 
L 119.289531 161.04351 
z
" clip-path="url(#p334e36cd6d)" style="fill: #1f77b4; opacity: 0.75"/>
   </g>
   <g id="patch_79">
    <path d="M 123.877604 161.04351 
L 128.465676 161.04351 
L 128.465676 161.04351 
L 123.877604 161.04351 
z
" clip-path="url(#p334e36cd6d)" style="fill: #1f77b4; opacity: 0.75"/>
   </g>
   <g id="patch_80">
    <path d="M 128.465676 161.04351 
L 133.053749 161.04351 
L 133.053749 161.04351 
L 128.465676 161.04351 
z
" clip-path="url(#p334e36cd6d)" style="fill: #1f77b4; opacity: 0.75"/>
   </g>
   <g id="patch_81">
    <path d="M 133.053749 161.04351 
L 137.641821 161.04351 
L 137.641821 161.04351 
L 133.053749 161.04351 
z
" clip-path="url(#p334e36cd6d)" style="fill: #1f77b4; opacity: 0.75"/>
   </g>
   <g id="patch_82">
    <path d="M 137.641821 161.04351 
L 142.229894 161.04351 
L 142.229894 161.04351 
L 137.641821 161.04351 
z
" clip-path="url(#p334e36cd6d)" style="fill: #1f77b4; opacity: 0.75"/>
   </g>
   <g id="patch_83">
    <path d="M 142.229894 161.04351 
L 146.817967 161.04351 
L 146.817967 161.04351 
L 142.229894 161.04351 
z
" clip-path="url(#p334e36cd6d)" style="fill: #1f77b4; opacity: 0.75"/>
   </g>
   <g id="patch_84">
    <path d="M 146.817967 161.04351 
L 151.406039 161.04351 
L 151.406039 160.775735 
L 146.817967 160.775735 
z
" clip-path="url(#p334e36cd6d)" style="fill: #1f77b4; opacity: 0.75"/>
   </g>
   <g id="patch_85">
    <path d="M 151.406039 161.04351 
L 155.994112 161.04351 
L 155.994112 161.04351 
L 151.406039 161.04351 
z
" clip-path="url(#p334e36cd6d)" style="fill: #1f77b4; opacity: 0.75"/>
   </g>
   <g id="patch_86">
    <path d="M 155.994112 161.04351 
L 160.582185 161.04351 
L 160.582185 160.954252 
L 155.994112 160.954252 
z
" clip-path="url(#p334e36cd6d)" style="fill: #1f77b4; opacity: 0.75"/>
   </g>
   <g id="patch_87">
    <path d="M 160.582185 161.04351 
L 165.170257 161.04351 
L 165.170257 160.686476 
L 160.582185 160.686476 
z
" clip-path="url(#p334e36cd6d)" style="fill: #1f77b4; opacity: 0.75"/>
   </g>
   <g id="patch_88">
    <path d="M 165.170257 161.04351 
L 169.75833 161.04351 
L 169.75833 161.04351 
L 165.170257 161.04351 
z
" clip-path="url(#p334e36cd6d)" style="fill: #1f77b4; opacity: 0.75"/>
   </g>
   <g id="patch_89">
    <path d="M 169.75833 161.04351 
L 174.346402 161.04351 
L 174.346402 158.812048 
L 169.75833 158.812048 
z
" clip-path="url(#p334e36cd6d)" style="fill: #1f77b4; opacity: 0.75"/>
   </g>
   <g id="patch_90">
    <path d="M 174.346402 161.04351 
L 178.934475 161.04351 
L 178.934475 161.04351 
L 174.346402 161.04351 
z
" clip-path="url(#p334e36cd6d)" style="fill: #1f77b4; opacity: 0.75"/>
   </g>
   <g id="patch_91">
    <path d="M 178.934475 161.04351 
L 183.522548 161.04351 
L 183.522548 149.707683 
L 178.934475 149.707683 
z
" clip-path="url(#p334e36cd6d)" style="fill: #1f77b4; opacity: 0.75"/>
   </g>
   <g id="patch_92">
    <path d="M 183.522548 161.04351 
L 188.11062 161.04351 
L 188.11062 130.427851 
L 183.522548 130.427851 
z
" clip-path="url(#p334e36cd6d)" style="fill: #1f77b4; opacity: 0.75"/>
   </g>
   <g id="patch_93">
    <path d="M 188.11062 161.04351 
L 192.698693 161.04351 
L 192.698693 161.04351 
L 188.11062 161.04351 
z
" clip-path="url(#p334e36cd6d)" style="fill: #1f77b4; opacity: 0.75"/>
   </g>
   <g id="patch_94">
    <path d="M 192.698693 161.04351 
L 197.286765 161.04351 
L 197.286765 24.924324 
L 192.698693 24.924324 
z
" clip-path="url(#p334e36cd6d)" style="fill: #1f77b4; opacity: 0.75"/>
   </g>
   <g id="patch_95">
    <path d="M 197.286765 161.04351 
L 201.874838 161.04351 
L 201.874838 161.04351 
L 197.286765 161.04351 
z
" clip-path="url(#p334e36cd6d)" style="fill: #1f77b4; opacity: 0.75"/>
   </g>
   <g id="patch_96">
    <path d="M 201.874838 161.04351 
L 206.462911 161.04351 
L 206.462911 123.822723 
L 201.874838 123.822723 
z
" clip-path="url(#p334e36cd6d)" style="fill: #1f77b4; opacity: 0.75"/>
   </g>
   <g id="patch_97">
    <path d="M 206.462911 161.04351 
L 211.050983 161.04351 
L 211.050983 141.228127 
L 206.462911 141.228127 
z
" clip-path="url(#p334e36cd6d)" style="fill: #1f77b4; opacity: 0.75"/>
   </g>
   <g id="patch_98">
    <path d="M 211.050983 161.04351 
L 215.639056 161.04351 
L 215.639056 161.04351 
L 211.050983 161.04351 
z
" clip-path="url(#p334e36cd6d)" style="fill: #1f77b4; opacity: 0.75"/>
   </g>
   <g id="patch_99">
    <path d="M 215.639056 161.04351 
L 220.227128 161.04351 
L 220.227128 158.812048 
L 215.639056 158.812048 
z
" clip-path="url(#p334e36cd6d)" style="fill: #1f77b4; opacity: 0.75"/>
   </g>
   <g id="patch_100">
    <path d="M 220.227128 161.04351 
L 224.815201 161.04351 
L 224.815201 161.04351 
L 220.227128 161.04351 
z
" clip-path="url(#p334e36cd6d)" style="fill: #1f77b4; opacity: 0.75"/>
   </g>
   <g id="patch_101">
    <path d="M 224.815201 161.04351 
L 229.403274 161.04351 
L 229.403274 160.954252 
L 224.815201 160.954252 
z
" clip-path="url(#p334e36cd6d)" style="fill: #1f77b4; opacity: 0.75"/>
   </g>
   <g id="patch_102">
    <path d="M 229.403274 161.04351 
L 233.991346 161.04351 
L 233.991346 161.04351 
L 229.403274 161.04351 
z
" clip-path="url(#p334e36cd6d)" style="fill: #1f77b4; opacity: 0.75"/>
   </g>
   <g id="patch_103">
    <path d="M 233.991346 161.04351 
L 238.579419 161.04351 
L 238.579419 160.954252 
L 233.991346 160.954252 
z
" clip-path="url(#p334e36cd6d)" style="fill: #1f77b4; opacity: 0.75"/>
   </g>
   <g id="patch_104">
    <path d="M 238.579419 161.04351 
L 243.167491 161.04351 
L 243.167491 160.597218 
L 238.579419 160.597218 
z
" clip-path="url(#p334e36cd6d)" style="fill: #1f77b4; opacity: 0.75"/>
   </g>
   <g id="patch_105">
    <path d="M 243.167491 161.04351 
L 247.755564 161.04351 
L 247.755564 161.04351 
L 243.167491 161.04351 
z
" clip-path="url(#p334e36cd6d)" style="fill: #1f77b4; opacity: 0.75"/>
   </g>
   <g id="patch_106">
    <path d="M 247.755564 161.04351 
L 252.343637 161.04351 
L 252.343637 160.240184 
L 247.755564 160.240184 
z
" clip-path="url(#p334e36cd6d)" style="fill: #1f77b4; opacity: 0.75"/>
   </g>
   <g id="patch_107">
    <path d="M 252.343637 161.04351 
L 256.931709 161.04351 
L 256.931709 161.04351 
L 252.343637 161.04351 
z
" clip-path="url(#p334e36cd6d)" style="fill: #1f77b4; opacity: 0.75"/>
   </g>
   <g id="patch_108">
    <path d="M 256.931709 161.04351 
L 261.519782 161.04351 
L 261.519782 160.864993 
L 256.931709 160.864993 
z
" clip-path="url(#p334e36cd6d)" style="fill: #1f77b4; opacity: 0.75"/>
   </g>
   <g id="patch_109">
    <path d="M 261.519782 161.04351 
L 266.107855 161.04351 
L 266.107855 161.04351 
L 261.519782 161.04351 
z
" clip-path="url(#p334e36cd6d)" style="fill: #1f77b4; opacity: 0.75"/>
   </g>
   <g id="patch_110">
    <path d="M 266.107855 161.04351 
L 270.695927 161.04351 
L 270.695927 161.04351 
L 266.107855 161.04351 
z
" clip-path="url(#p334e36cd6d)" style="fill: #1f77b4; opacity: 0.75"/>
   </g>
   <g id="patch_111">
    <path d="M 270.695927 161.04351 
L 275.284 161.04351 
L 275.284 161.04351 
L 270.695927 161.04351 
z
" clip-path="url(#p334e36cd6d)" style="fill: #1f77b4; opacity: 0.75"/>
   </g>
   <g id="patch_112">
    <path d="M 275.284 161.04351 
L 279.872072 161.04351 
L 279.872072 161.04351 
L 275.284 161.04351 
z
" clip-path="url(#p334e36cd6d)" style="fill: #1f77b4; opacity: 0.75"/>
   </g>
   <g id="patch_113">
    <path d="M 279.872072 161.04351 
L 284.460145 161.04351 
L 284.460145 161.04351 
L 279.872072 161.04351 
z
" clip-path="url(#p334e36cd6d)" style="fill: #1f77b4; opacity: 0.75"/>
   </g>
   <g id="patch_114">
    <path d="M 284.460145 161.04351 
L 289.048218 161.04351 
L 289.048218 161.04351 
L 284.460145 161.04351 
z
" clip-path="url(#p334e36cd6d)" style="fill: #1f77b4; opacity: 0.75"/>
   </g>
   <g id="patch_115">
    <path d="M 289.048218 161.04351 
L 293.63629 161.04351 
L 293.63629 161.04351 
L 289.048218 161.04351 
z
" clip-path="url(#p334e36cd6d)" style="fill: #1f77b4; opacity: 0.75"/>
   </g>
   <g id="patch_116">
    <path d="M 293.63629 161.04351 
L 298.224363 161.04351 
L 298.224363 161.04351 
L 293.63629 161.04351 
z
" clip-path="url(#p334e36cd6d)" style="fill: #1f77b4; opacity: 0.75"/>
   </g>
   <g id="patch_117">
    <path d="M 298.224363 161.04351 
L 302.812435 161.04351 
L 302.812435 161.04351 
L 298.224363 161.04351 
z
" clip-path="url(#p334e36cd6d)" style="fill: #1f77b4; opacity: 0.75"/>
   </g>
   <g id="patch_118">
    <path d="M 302.812435 161.04351 
L 307.400508 161.04351 
L 307.400508 161.04351 
L 302.812435 161.04351 
z
" clip-path="url(#p334e36cd6d)" style="fill: #1f77b4; opacity: 0.75"/>
   </g>
   <g id="patch_119">
    <path d="M 307.400508 161.04351 
L 311.988581 161.04351 
L 311.988581 160.954252 
L 307.400508 160.954252 
z
" clip-path="url(#p334e36cd6d)" style="fill: #1f77b4; opacity: 0.75"/>
   </g>
   <g id="patch_120">
    <path d="M 311.988581 161.04351 
L 316.576653 161.04351 
L 316.576653 161.04351 
L 311.988581 161.04351 
z
" clip-path="url(#p334e36cd6d)" style="fill: #1f77b4; opacity: 0.75"/>
   </g>
   <g id="patch_121">
    <path d="M 316.576653 161.04351 
L 321.164726 161.04351 
L 321.164726 161.04351 
L 316.576653 161.04351 
z
" clip-path="url(#p334e36cd6d)" style="fill: #1f77b4; opacity: 0.75"/>
   </g>
   <g id="patch_122">
    <path d="M 321.164726 161.04351 
L 325.752798 161.04351 
L 325.752798 161.04351 
L 321.164726 161.04351 
z
" clip-path="url(#p334e36cd6d)" style="fill: #1f77b4; opacity: 0.75"/>
   </g>
   <g id="patch_123">
    <path d="M 325.752798 161.04351 
L 330.340871 161.04351 
L 330.340871 161.04351 
L 325.752798 161.04351 
z
" clip-path="url(#p334e36cd6d)" style="fill: #1f77b4; opacity: 0.75"/>
   </g>
   <g id="patch_124">
    <path d="M 330.340871 161.04351 
L 334.928944 161.04351 
L 334.928944 161.04351 
L 330.340871 161.04351 
z
" clip-path="url(#p334e36cd6d)" style="fill: #1f77b4; opacity: 0.75"/>
   </g>
   <g id="patch_125">
    <path d="M 334.928944 161.04351 
L 339.517016 161.04351 
L 339.517016 161.04351 
L 334.928944 161.04351 
z
" clip-path="url(#p334e36cd6d)" style="fill: #1f77b4; opacity: 0.75"/>
   </g>
   <g id="patch_126">
    <path d="M 339.517016 161.04351 
L 344.105089 161.04351 
L 344.105089 161.04351 
L 339.517016 161.04351 
z
" clip-path="url(#p334e36cd6d)" style="fill: #1f77b4; opacity: 0.75"/>
   </g>
   <g id="patch_127">
    <path d="M 344.105089 161.04351 
L 348.693161 161.04351 
L 348.693161 161.04351 
L 344.105089 161.04351 
z
" clip-path="url(#p334e36cd6d)" style="fill: #1f77b4; opacity: 0.75"/>
   </g>
   <g id="patch_128">
    <path d="M 348.693161 161.04351 
L 353.281234 161.04351 
L 353.281234 161.04351 
L 348.693161 161.04351 
z
" clip-path="url(#p334e36cd6d)" style="fill: #1f77b4; opacity: 0.75"/>
   </g>
   <g id="patch_129">
    <path d="M 353.281234 161.04351 
L 357.869307 161.04351 
L 357.869307 161.04351 
L 353.281234 161.04351 
z
" clip-path="url(#p334e36cd6d)" style="fill: #1f77b4; opacity: 0.75"/>
   </g>
   <g id="patch_130">
    <path d="M 357.869307 161.04351 
L 362.457379 161.04351 
L 362.457379 160.864993 
L 357.869307 160.864993 
z
" clip-path="url(#p334e36cd6d)" style="fill: #1f77b4; opacity: 0.75"/>
   </g>
   <g id="patch_131">
    <path d="M 362.457379 161.04351 
L 367.045452 161.04351 
L 367.045452 160.775735 
L 362.457379 160.775735 
z
" clip-path="url(#p334e36cd6d)" style="fill: #1f77b4; opacity: 0.75"/>
   </g>
   <g id="patch_132">
    <path d="M 367.045452 161.04351 
L 371.633524 161.04351 
L 371.633524 161.04351 
L 367.045452 161.04351 
z
" clip-path="url(#p334e36cd6d)" style="fill: #1f77b4; opacity: 0.75"/>
   </g>
   <g id="patch_133">
    <path d="M 371.633524 161.04351 
L 376.221597 161.04351 
L 376.221597 161.04351 
L 371.633524 161.04351 
z
" clip-path="url(#p334e36cd6d)" style="fill: #1f77b4; opacity: 0.75"/>
   </g>
   <g id="patch_134">
    <path d="M 376.221597 161.04351 
L 380.80967 161.04351 
L 380.80967 161.04351 
L 376.221597 161.04351 
z
" clip-path="url(#p334e36cd6d)" style="fill: #1f77b4; opacity: 0.75"/>
   </g>
   <g id="patch_135">
    <path d="M 380.80967 161.04351 
L 385.397742 161.04351 
L 385.397742 161.04351 
L 380.80967 161.04351 
z
" clip-path="url(#p334e36cd6d)" style="fill: #1f77b4; opacity: 0.75"/>
   </g>
   <g id="patch_136">
    <path d="M 385.397742 161.04351 
L 389.985815 161.04351 
L 389.985815 160.954252 
L 385.397742 160.954252 
z
" clip-path="url(#p334e36cd6d)" style="fill: #1f77b4; opacity: 0.75"/>
   </g>
   <g id="patch_137">
    <path d="M 389.985815 161.04351 
L 394.573888 161.04351 
L 394.573888 161.04351 
L 389.985815 161.04351 
z
" clip-path="url(#p334e36cd6d)" style="fill: #1f77b4; opacity: 0.75"/>
   </g>
   <g id="patch_138">
    <path d="M 394.573888 161.04351 
L 399.16196 161.04351 
L 399.16196 160.954252 
L 394.573888 160.954252 
z
" clip-path="url(#p334e36cd6d)" style="fill: #1f77b4; opacity: 0.75"/>
   </g>
   <g id="patch_139">
    <path d="M 399.16196 161.04351 
L 403.750033 161.04351 
L 403.750033 161.04351 
L 399.16196 161.04351 
z
" clip-path="url(#p334e36cd6d)" style="fill: #1f77b4; opacity: 0.75"/>
   </g>
   <g id="patch_140">
    <path d="M 403.750033 161.04351 
L 408.338105 161.04351 
L 408.338105 161.04351 
L 403.750033 161.04351 
z
" clip-path="url(#p334e36cd6d)" style="fill: #1f77b4; opacity: 0.75"/>
   </g>
   <g id="patch_141">
    <path d="M 408.338105 161.04351 
L 412.926178 161.04351 
L 412.926178 160.418701 
L 408.338105 160.418701 
z
" clip-path="url(#p334e36cd6d)" style="fill: #1f77b4; opacity: 0.75"/>
   </g>
   <g id="patch_142">
    <path d="M 412.926178 161.04351 
L 417.514251 161.04351 
L 417.514251 161.04351 
L 412.926178 161.04351 
z
" clip-path="url(#p334e36cd6d)" style="fill: #1f77b4; opacity: 0.75"/>
   </g>
   <g id="patch_143">
    <path d="M 417.514251 161.04351 
L 422.102323 161.04351 
L 422.102323 161.04351 
L 417.514251 161.04351 
z
" clip-path="url(#p334e36cd6d)" style="fill: #1f77b4; opacity: 0.75"/>
   </g>
   <g id="patch_144">
    <path d="M 422.102323 161.04351 
L 426.690396 161.04351 
L 426.690396 161.04351 
L 422.102323 161.04351 
z
" clip-path="url(#p334e36cd6d)" style="fill: #1f77b4; opacity: 0.75"/>
   </g>
   <g id="patch_145">
    <path d="M 426.690396 161.04351 
L 431.278468 161.04351 
L 431.278468 161.04351 
L 426.690396 161.04351 
z
" clip-path="url(#p334e36cd6d)" style="fill: #1f77b4; opacity: 0.75"/>
   </g>
   <g id="patch_146">
    <path d="M 431.278468 161.04351 
L 435.866541 161.04351 
L 435.866541 161.04351 
L 431.278468 161.04351 
z
" clip-path="url(#p334e36cd6d)" style="fill: #1f77b4; opacity: 0.75"/>
   </g>
   <g id="patch_147">
    <path d="M 435.866541 161.04351 
L 440.454614 161.04351 
L 440.454614 161.04351 
L 435.866541 161.04351 
z
" clip-path="url(#p334e36cd6d)" style="fill: #1f77b4; opacity: 0.75"/>
   </g>
   <g id="patch_148">
    <path d="M 440.454614 161.04351 
L 445.042686 161.04351 
L 445.042686 161.04351 
L 440.454614 161.04351 
z
" clip-path="url(#p334e36cd6d)" style="fill: #1f77b4; opacity: 0.75"/>
   </g>
   <g id="patch_149">
    <path d="M 445.042686 161.04351 
L 449.630759 161.04351 
L 449.630759 161.04351 
L 445.042686 161.04351 
z
" clip-path="url(#p334e36cd6d)" style="fill: #1f77b4; opacity: 0.75"/>
   </g>
   <g id="patch_150">
    <path d="M 449.630759 161.04351 
L 454.218831 161.04351 
L 454.218831 161.04351 
L 449.630759 161.04351 
z
" clip-path="url(#p334e36cd6d)" style="fill: #1f77b4; opacity: 0.75"/>
   </g>
   <g id="patch_151">
    <path d="M 454.218831 161.04351 
L 458.806904 161.04351 
L 458.806904 161.04351 
L 454.218831 161.04351 
z
" clip-path="url(#p334e36cd6d)" style="fill: #1f77b4; opacity: 0.75"/>
   </g>
   <g id="patch_152">
    <path d="M 458.806904 161.04351 
L 463.394977 161.04351 
L 463.394977 161.04351 
L 458.806904 161.04351 
z
" clip-path="url(#p334e36cd6d)" style="fill: #1f77b4; opacity: 0.75"/>
   </g>
   <g id="patch_153">
    <path d="M 463.394977 161.04351 
L 467.983049 161.04351 
L 467.983049 161.04351 
L 463.394977 161.04351 
z
" clip-path="url(#p334e36cd6d)" style="fill: #1f77b4; opacity: 0.75"/>
   </g>
   <g id="patch_154">
    <path d="M 467.983049 161.04351 
L 472.571122 161.04351 
L 472.571122 161.04351 
L 467.983049 161.04351 
z
" clip-path="url(#p334e36cd6d)" style="fill: #1f77b4; opacity: 0.75"/>
   </g>
   <g id="patch_155">
    <path d="M 472.571122 161.04351 
L 477.159194 161.04351 
L 477.159194 160.507959 
L 472.571122 160.507959 
z
" clip-path="url(#p334e36cd6d)" style="fill: #1f77b4; opacity: 0.75"/>
   </g>
   <g id="patch_156">
    <path d="M 477.159194 161.04351 
L 481.747267 161.04351 
L 481.747267 161.04351 
L 477.159194 161.04351 
z
" clip-path="url(#p334e36cd6d)" style="fill: #1f77b4; opacity: 0.75"/>
   </g>
   <g id="patch_157">
    <path d="M 481.747267 161.04351 
L 486.33534 161.04351 
L 486.33534 161.04351 
L 481.747267 161.04351 
z
" clip-path="url(#p334e36cd6d)" style="fill: #1f77b4; opacity: 0.75"/>
   </g>
   <g id="patch_158">
    <path d="M 486.33534 161.04351 
L 490.923412 161.04351 
L 490.923412 160.954252 
L 486.33534 160.954252 
z
" clip-path="url(#p334e36cd6d)" style="fill: #1f77b4; opacity: 0.75"/>
   </g>
   <g id="patch_159">
    <path d="M 490.923412 161.04351 
L 495.511485 161.04351 
L 495.511485 161.04351 
L 490.923412 161.04351 
z
" clip-path="url(#p334e36cd6d)" style="fill: #1f77b4; opacity: 0.75"/>
   </g>
   <g id="patch_160">
    <path d="M 495.511485 161.04351 
L 500.099557 161.04351 
L 500.099557 161.04351 
L 495.511485 161.04351 
z
" clip-path="url(#p334e36cd6d)" style="fill: #1f77b4; opacity: 0.75"/>
   </g>
   <g id="patch_161">
    <path d="M 500.099557 161.04351 
L 504.68763 161.04351 
L 504.68763 161.04351 
L 500.099557 161.04351 
z
" clip-path="url(#p334e36cd6d)" style="fill: #1f77b4; opacity: 0.75"/>
   </g>
   <g id="patch_162">
    <path d="M 504.68763 161.04351 
L 509.275703 161.04351 
L 509.275703 160.864993 
L 504.68763 160.864993 
z
" clip-path="url(#p334e36cd6d)" style="fill: #1f77b4; opacity: 0.75"/>
   </g>
   <g id="patch_163">
    <path d="M 509.275703 161.04351 
L 513.863775 161.04351 
L 513.863775 161.04351 
L 509.275703 161.04351 
z
" clip-path="url(#p334e36cd6d)" style="fill: #1f77b4; opacity: 0.75"/>
   </g>
   <g id="patch_164">
    <path d="M 513.863775 161.04351 
L 518.451848 161.04351 
L 518.451848 161.04351 
L 513.863775 161.04351 
z
" clip-path="url(#p334e36cd6d)" style="fill: #1f77b4; opacity: 0.75"/>
   </g>
   <g id="patch_165">
    <path d="M 518.451848 161.04351 
L 523.039921 161.04351 
L 523.039921 161.04351 
L 518.451848 161.04351 
z
" clip-path="url(#p334e36cd6d)" style="fill: #1f77b4; opacity: 0.75"/>
   </g>
   <g id="patch_166">
    <path d="M 523.039921 161.04351 
L 527.627993 161.04351 
L 527.627993 161.04351 
L 523.039921 161.04351 
z
" clip-path="url(#p334e36cd6d)" style="fill: #1f77b4; opacity: 0.75"/>
   </g>
   <g id="patch_167">
    <path d="M 527.627993 161.04351 
L 532.216066 161.04351 
L 532.216066 161.04351 
L 527.627993 161.04351 
z
" clip-path="url(#p334e36cd6d)" style="fill: #1f77b4; opacity: 0.75"/>
   </g>
   <g id="patch_168">
    <path d="M 532.216066 161.04351 
L 536.804138 161.04351 
L 536.804138 161.04351 
L 532.216066 161.04351 
z
" clip-path="url(#p334e36cd6d)" style="fill: #1f77b4; opacity: 0.75"/>
   </g>
   <g id="patch_169">
    <path d="M 536.804138 161.04351 
L 541.392211 161.04351 
L 541.392211 161.04351 
L 536.804138 161.04351 
z
" clip-path="url(#p334e36cd6d)" style="fill: #1f77b4; opacity: 0.75"/>
   </g>
   <g id="patch_170">
    <path d="M 541.392211 161.04351 
L 545.980284 161.04351 
L 545.980284 161.04351 
L 541.392211 161.04351 
z
" clip-path="url(#p334e36cd6d)" style="fill: #1f77b4; opacity: 0.75"/>
   </g>
   <g id="patch_171">
    <path d="M 545.980284 161.04351 
L 550.568356 161.04351 
L 550.568356 161.04351 
L 545.980284 161.04351 
z
" clip-path="url(#p334e36cd6d)" style="fill: #1f77b4; opacity: 0.75"/>
   </g>
   <g id="patch_172">
    <path d="M 550.568356 161.04351 
L 555.156429 161.04351 
L 555.156429 161.04351 
L 550.568356 161.04351 
z
" clip-path="url(#p334e36cd6d)" style="fill: #1f77b4; opacity: 0.75"/>
   </g>
   <g id="patch_173">
    <path d="M 555.156429 161.04351 
L 559.744501 161.04351 
L 559.744501 161.04351 
L 555.156429 161.04351 
z
" clip-path="url(#p334e36cd6d)" style="fill: #1f77b4; opacity: 0.75"/>
   </g>
   <g id="patch_174">
    <path d="M 559.744501 161.04351 
L 564.332574 161.04351 
L 564.332574 161.04351 
L 559.744501 161.04351 
z
" clip-path="url(#p334e36cd6d)" style="fill: #1f77b4; opacity: 0.75"/>
   </g>
   <g id="patch_175">
    <path d="M 564.332574 161.04351 
L 568.920647 161.04351 
L 568.920647 161.04351 
L 564.332574 161.04351 
z
" clip-path="url(#p334e36cd6d)" style="fill: #1f77b4; opacity: 0.75"/>
   </g>
   <g id="patch_176">
    <path d="M 568.920647 161.04351 
L 573.508719 161.04351 
L 573.508719 161.04351 
L 568.920647 161.04351 
z
" clip-path="url(#p334e36cd6d)" style="fill: #1f77b4; opacity: 0.75"/>
   </g>
   <g id="patch_177">
    <path d="M 573.508719 161.04351 
L 578.096792 161.04351 
L 578.096792 161.04351 
L 573.508719 161.04351 
z
" clip-path="url(#p334e36cd6d)" style="fill: #1f77b4; opacity: 0.75"/>
   </g>
   <g id="patch_178">
    <path d="M 578.096792 161.04351 
L 582.684864 161.04351 
L 582.684864 161.04351 
L 578.096792 161.04351 
z
" clip-path="url(#p334e36cd6d)" style="fill: #1f77b4; opacity: 0.75"/>
   </g>
   <g id="patch_179">
    <path d="M 582.684864 161.04351 
L 587.272937 161.04351 
L 587.272937 160.954252 
L 582.684864 160.954252 
z
" clip-path="url(#p334e36cd6d)" style="fill: #1f77b4; opacity: 0.75"/>
   </g>
   <g id="patch_180">
    <path d="M 587.272937 161.04351 
L 591.86101 161.04351 
L 591.86101 161.04351 
L 587.272937 161.04351 
z
" clip-path="url(#p334e36cd6d)" style="fill: #1f77b4; opacity: 0.75"/>
   </g>
   <g id="patch_181">
    <path d="M 591.86101 161.04351 
L 596.449082 161.04351 
L 596.449082 161.04351 
L 591.86101 161.04351 
z
" clip-path="url(#p334e36cd6d)" style="fill: #1f77b4; opacity: 0.75"/>
   </g>
   <g id="patch_182">
    <path d="M 596.449082 161.04351 
L 601.037155 161.04351 
L 601.037155 161.04351 
L 596.449082 161.04351 
z
" clip-path="url(#p334e36cd6d)" style="fill: #1f77b4; opacity: 0.75"/>
   </g>
   <g id="patch_183">
    <path d="M 601.037155 161.04351 
L 605.625227 161.04351 
L 605.625227 161.04351 
L 601.037155 161.04351 
z
" clip-path="url(#p334e36cd6d)" style="fill: #1f77b4; opacity: 0.75"/>
   </g>
   <g id="patch_184">
    <path d="M 605.625227 161.04351 
L 610.2133 161.04351 
L 610.2133 161.04351 
L 605.625227 161.04351 
z
" clip-path="url(#p334e36cd6d)" style="fill: #1f77b4; opacity: 0.75"/>
   </g>
   <g id="patch_185">
    <path d="M 610.2133 161.04351 
L 614.801373 161.04351 
L 614.801373 161.04351 
L 610.2133 161.04351 
z
" clip-path="url(#p334e36cd6d)" style="fill: #1f77b4; opacity: 0.75"/>
   </g>
   <g id="patch_186">
    <path d="M 614.801373 161.04351 
L 619.389445 161.04351 
L 619.389445 160.775735 
L 614.801373 160.775735 
z
" clip-path="url(#p334e36cd6d)" style="fill: #1f77b4; opacity: 0.75"/>
   </g>
   <g id="patch_187">
    <path d="M 619.389445 161.04351 
L 623.977518 161.04351 
L 623.977518 161.04351 
L 619.389445 161.04351 
z
" clip-path="url(#p334e36cd6d)" style="fill: #1f77b4; opacity: 0.75"/>
   </g>
   <g id="patch_188">
    <path d="M 623.977518 161.04351 
L 628.56559 161.04351 
L 628.56559 161.04351 
L 623.977518 161.04351 
z
" clip-path="url(#p334e36cd6d)" style="fill: #1f77b4; opacity: 0.75"/>
   </g>
   <g id="patch_189">
    <path d="M 628.56559 161.04351 
L 633.153663 161.04351 
L 633.153663 160.597218 
L 628.56559 160.597218 
z
" clip-path="url(#p334e36cd6d)" style="fill: #1f77b4; opacity: 0.75"/>
   </g>
   <g id="patch_190">
    <path d="M 633.153663 161.04351 
L 637.741736 161.04351 
L 637.741736 161.04351 
L 633.153663 161.04351 
z
" clip-path="url(#p334e36cd6d)" style="fill: #1f77b4; opacity: 0.75"/>
   </g>
   <g id="patch_191">
    <path d="M 637.741736 161.04351 
L 642.329808 161.04351 
L 642.329808 160.864993 
L 637.741736 160.864993 
z
" clip-path="url(#p334e36cd6d)" style="fill: #1f77b4; opacity: 0.75"/>
   </g>
   <g id="patch_192">
    <path d="M 642.329808 161.04351 
L 646.917881 161.04351 
L 646.917881 161.04351 
L 642.329808 161.04351 
z
" clip-path="url(#p334e36cd6d)" style="fill: #1f77b4; opacity: 0.75"/>
   </g>
   <g id="patch_193">
    <path d="M 646.917881 161.04351 
L 651.505954 161.04351 
L 651.505954 161.04351 
L 646.917881 161.04351 
z
" clip-path="url(#p334e36cd6d)" style="fill: #1f77b4; opacity: 0.75"/>
   </g>
   <g id="patch_194">
    <path d="M 651.505954 161.04351 
L 656.094026 161.04351 
L 656.094026 160.864993 
L 651.505954 160.864993 
z
" clip-path="url(#p334e36cd6d)" style="fill: #1f77b4; opacity: 0.75"/>
   </g>
   <g id="patch_195">
    <path d="M 656.094026 161.04351 
L 660.682099 161.04351 
L 660.682099 161.04351 
L 656.094026 161.04351 
z
" clip-path="url(#p334e36cd6d)" style="fill: #1f77b4; opacity: 0.75"/>
   </g>
   <g id="patch_196">
    <path d="M 660.682099 161.04351 
L 665.270171 161.04351 
L 665.270171 160.775735 
L 660.682099 160.775735 
z
" clip-path="url(#p334e36cd6d)" style="fill: #1f77b4; opacity: 0.75"/>
   </g>
   <g id="patch_197">
    <path d="M 665.270171 161.04351 
L 669.858244 161.04351 
L 669.858244 161.04351 
L 665.270171 161.04351 
z
" clip-path="url(#p334e36cd6d)" style="fill: #1f77b4; opacity: 0.75"/>
   </g>
   <g id="patch_198">
    <path d="M 669.858244 161.04351 
L 674.446317 161.04351 
L 674.446317 161.04351 
L 669.858244 161.04351 
z
" clip-path="url(#p334e36cd6d)" style="fill: #1f77b4; opacity: 0.75"/>
   </g>
   <g id="patch_199">
    <path d="M 674.446317 161.04351 
L 679.034389 161.04351 
L 679.034389 161.04351 
L 674.446317 161.04351 
z
" clip-path="url(#p334e36cd6d)" style="fill: #1f77b4; opacity: 0.75"/>
   </g>
   <g id="patch_200">
    <path d="M 679.034389 161.04351 
L 683.622462 161.04351 
L 683.622462 161.04351 
L 679.034389 161.04351 
z
" clip-path="url(#p334e36cd6d)" style="fill: #1f77b4; opacity: 0.75"/>
   </g>
   <g id="patch_201">
    <path d="M 683.622462 161.04351 
L 688.210534 161.04351 
L 688.210534 161.04351 
L 683.622462 161.04351 
z
" clip-path="url(#p334e36cd6d)" style="fill: #1f77b4; opacity: 0.75"/>
   </g>
   <g id="patch_202">
    <path d="M 688.210534 161.04351 
L 692.798607 161.04351 
L 692.798607 161.04351 
L 688.210534 161.04351 
z
" clip-path="url(#p334e36cd6d)" style="fill: #1f77b4; opacity: 0.75"/>
   </g>
   <g id="patch_203">
    <path d="M 692.798607 161.04351 
L 697.38668 161.04351 
L 697.38668 161.04351 
L 692.798607 161.04351 
z
" clip-path="url(#p334e36cd6d)" style="fill: #1f77b4; opacity: 0.75"/>
   </g>
   <g id="patch_204">
    <path d="M 697.38668 161.04351 
L 701.974752 161.04351 
L 701.974752 160.775735 
L 697.38668 160.775735 
z
" clip-path="url(#p334e36cd6d)" style="fill: #1f77b4; opacity: 0.75"/>
   </g>
   <g id="patch_205">
    <path d="M 701.974752 161.04351 
L 706.562825 161.04351 
L 706.562825 161.04351 
L 701.974752 161.04351 
z
" clip-path="url(#p334e36cd6d)" style="fill: #1f77b4; opacity: 0.75"/>
   </g>
   <g id="patch_206">
    <path d="M 706.562825 161.04351 
L 711.150897 161.04351 
L 711.150897 161.04351 
L 706.562825 161.04351 
z
" clip-path="url(#p334e36cd6d)" style="fill: #1f77b4; opacity: 0.75"/>
   </g>
   <g id="patch_207">
    <path d="M 711.150897 161.04351 
L 715.73897 161.04351 
L 715.73897 161.04351 
L 711.150897 161.04351 
z
" clip-path="url(#p334e36cd6d)" style="fill: #1f77b4; opacity: 0.75"/>
   </g>
   <g id="patch_208">
    <path d="M 715.73897 161.04351 
L 720.327043 161.04351 
L 720.327043 161.04351 
L 715.73897 161.04351 
z
" clip-path="url(#p334e36cd6d)" style="fill: #1f77b4; opacity: 0.75"/>
   </g>
   <g id="patch_209">
    <path d="M 720.327043 161.04351 
L 724.915115 161.04351 
L 724.915115 161.04351 
L 720.327043 161.04351 
z
" clip-path="url(#p334e36cd6d)" style="fill: #1f77b4; opacity: 0.75"/>
   </g>
   <g id="patch_210">
    <path d="M 724.915115 161.04351 
L 729.503188 161.04351 
L 729.503188 161.04351 
L 724.915115 161.04351 
z
" clip-path="url(#p334e36cd6d)" style="fill: #1f77b4; opacity: 0.75"/>
   </g>
   <g id="patch_211">
    <path d="M 729.503188 161.04351 
L 734.09126 161.04351 
L 734.09126 161.04351 
L 729.503188 161.04351 
z
" clip-path="url(#p334e36cd6d)" style="fill: #1f77b4; opacity: 0.75"/>
   </g>
   <g id="patch_212">
    <path d="M 734.09126 161.04351 
L 738.679333 161.04351 
L 738.679333 161.04351 
L 734.09126 161.04351 
z
" clip-path="url(#p334e36cd6d)" style="fill: #1f77b4; opacity: 0.75"/>
   </g>
   <g id="patch_213">
    <path d="M 738.679333 161.04351 
L 743.267406 161.04351 
L 743.267406 161.04351 
L 738.679333 161.04351 
z
" clip-path="url(#p334e36cd6d)" style="fill: #1f77b4; opacity: 0.75"/>
   </g>
   <g id="patch_214">
    <path d="M 743.267406 161.04351 
L 747.855478 161.04351 
L 747.855478 161.04351 
L 743.267406 161.04351 
z
" clip-path="url(#p334e36cd6d)" style="fill: #1f77b4; opacity: 0.75"/>
   </g>
   <g id="patch_215">
    <path d="M 747.855478 161.04351 
L 752.443551 161.04351 
L 752.443551 161.04351 
L 747.855478 161.04351 
z
" clip-path="url(#p334e36cd6d)" style="fill: #1f77b4; opacity: 0.75"/>
   </g>
   <g id="patch_216">
    <path d="M 752.443551 161.04351 
L 757.031624 161.04351 
L 757.031624 161.04351 
L 752.443551 161.04351 
z
" clip-path="url(#p334e36cd6d)" style="fill: #1f77b4; opacity: 0.75"/>
   </g>
   <g id="patch_217">
    <path d="M 757.031624 161.04351 
L 761.619696 161.04351 
L 761.619696 161.04351 
L 757.031624 161.04351 
z
" clip-path="url(#p334e36cd6d)" style="fill: #1f77b4; opacity: 0.75"/>
   </g>
   <g id="patch_218">
    <path d="M 761.619696 161.04351 
L 766.207769 161.04351 
L 766.207769 161.04351 
L 761.619696 161.04351 
z
" clip-path="url(#p334e36cd6d)" style="fill: #1f77b4; opacity: 0.75"/>
   </g>
   <g id="patch_219">
    <path d="M 766.207769 161.04351 
L 770.795841 161.04351 
L 770.795841 161.04351 
L 766.207769 161.04351 
z
" clip-path="url(#p334e36cd6d)" style="fill: #1f77b4; opacity: 0.75"/>
   </g>
   <g id="patch_220">
    <path d="M 770.795841 161.04351 
L 775.383914 161.04351 
L 775.383914 161.04351 
L 770.795841 161.04351 
z
" clip-path="url(#p334e36cd6d)" style="fill: #1f77b4; opacity: 0.75"/>
   </g>
   <g id="patch_221">
    <path d="M 775.383914 161.04351 
L 779.971987 161.04351 
L 779.971987 161.04351 
L 775.383914 161.04351 
z
" clip-path="url(#p334e36cd6d)" style="fill: #1f77b4; opacity: 0.75"/>
   </g>
   <g id="patch_222">
    <path d="M 779.971987 161.04351 
L 784.560059 161.04351 
L 784.560059 161.04351 
L 779.971987 161.04351 
z
" clip-path="url(#p334e36cd6d)" style="fill: #1f77b4; opacity: 0.75"/>
   </g>
   <g id="patch_223">
    <path d="M 784.560059 161.04351 
L 789.148132 161.04351 
L 789.148132 161.04351 
L 784.560059 161.04351 
z
" clip-path="url(#p334e36cd6d)" style="fill: #1f77b4; opacity: 0.75"/>
   </g>
   <g id="patch_224">
    <path d="M 789.148132 161.04351 
L 793.736204 161.04351 
L 793.736204 161.04351 
L 789.148132 161.04351 
z
" clip-path="url(#p334e36cd6d)" style="fill: #1f77b4; opacity: 0.75"/>
   </g>
   <g id="patch_225">
    <path d="M 793.736204 161.04351 
L 798.324277 161.04351 
L 798.324277 160.864993 
L 793.736204 160.864993 
z
" clip-path="url(#p334e36cd6d)" style="fill: #1f77b4; opacity: 0.75"/>
   </g>
   <g id="patch_226">
    <path d="M 798.324277 161.04351 
L 802.91235 161.04351 
L 802.91235 161.04351 
L 798.324277 161.04351 
z
" clip-path="url(#p334e36cd6d)" style="fill: #1f77b4; opacity: 0.75"/>
   </g>
   <g id="patch_227">
    <path d="M 802.91235 161.04351 
L 807.500422 161.04351 
L 807.500422 161.04351 
L 802.91235 161.04351 
z
" clip-path="url(#p334e36cd6d)" style="fill: #1f77b4; opacity: 0.75"/>
   </g>
   <g id="patch_228">
    <path d="M 807.500422 161.04351 
L 812.088495 161.04351 
L 812.088495 161.04351 
L 807.500422 161.04351 
z
" clip-path="url(#p334e36cd6d)" style="fill: #1f77b4; opacity: 0.75"/>
   </g>
   <g id="patch_229">
    <path d="M 812.088495 161.04351 
L 816.676567 161.04351 
L 816.676567 161.04351 
L 812.088495 161.04351 
z
" clip-path="url(#p334e36cd6d)" style="fill: #1f77b4; opacity: 0.75"/>
   </g>
   <g id="patch_230">
    <path d="M 816.676567 161.04351 
L 821.26464 161.04351 
L 821.26464 161.04351 
L 816.676567 161.04351 
z
" clip-path="url(#p334e36cd6d)" style="fill: #1f77b4; opacity: 0.75"/>
   </g>
   <g id="patch_231">
    <path d="M 821.26464 161.04351 
L 825.852713 161.04351 
L 825.852713 161.04351 
L 821.26464 161.04351 
z
" clip-path="url(#p334e36cd6d)" style="fill: #1f77b4; opacity: 0.75"/>
   </g>
   <g id="patch_232">
    <path d="M 825.852713 161.04351 
L 830.440785 161.04351 
L 830.440785 161.04351 
L 825.852713 161.04351 
z
" clip-path="url(#p334e36cd6d)" style="fill: #1f77b4; opacity: 0.75"/>
   </g>
   <g id="patch_233">
    <path d="M 830.440785 161.04351 
L 835.028858 161.04351 
L 835.028858 161.04351 
L 830.440785 161.04351 
z
" clip-path="url(#p334e36cd6d)" style="fill: #1f77b4; opacity: 0.75"/>
   </g>
   <g id="patch_234">
    <path d="M 835.028858 161.04351 
L 839.61693 161.04351 
L 839.61693 161.04351 
L 835.028858 161.04351 
z
" clip-path="url(#p334e36cd6d)" style="fill: #1f77b4; opacity: 0.75"/>
   </g>
   <g id="patch_235">
    <path d="M 839.61693 161.04351 
L 844.205003 161.04351 
L 844.205003 161.04351 
L 839.61693 161.04351 
z
" clip-path="url(#p334e36cd6d)" style="fill: #1f77b4; opacity: 0.75"/>
   </g>
   <g id="patch_236">
    <path d="M 844.205003 161.04351 
L 848.793076 161.04351 
L 848.793076 161.04351 
L 844.205003 161.04351 
z
" clip-path="url(#p334e36cd6d)" style="fill: #1f77b4; opacity: 0.75"/>
   </g>
   <g id="patch_237">
    <path d="M 848.793076 161.04351 
L 853.381148 161.04351 
L 853.381148 161.04351 
L 848.793076 161.04351 
z
" clip-path="url(#p334e36cd6d)" style="fill: #1f77b4; opacity: 0.75"/>
   </g>
   <g id="patch_238">
    <path d="M 853.381148 161.04351 
L 857.969221 161.04351 
L 857.969221 161.04351 
L 853.381148 161.04351 
z
" clip-path="url(#p334e36cd6d)" style="fill: #1f77b4; opacity: 0.75"/>
   </g>
   <g id="patch_239">
    <path d="M 857.969221 161.04351 
L 862.557293 161.04351 
L 862.557293 161.04351 
L 857.969221 161.04351 
z
" clip-path="url(#p334e36cd6d)" style="fill: #1f77b4; opacity: 0.75"/>
   </g>
   <g id="patch_240">
    <path d="M 862.557293 161.04351 
L 867.145366 161.04351 
L 867.145366 161.04351 
L 862.557293 161.04351 
z
" clip-path="url(#p334e36cd6d)" style="fill: #1f77b4; opacity: 0.75"/>
   </g>
   <g id="patch_241">
    <path d="M 867.145366 161.04351 
L 871.733439 161.04351 
L 871.733439 161.04351 
L 867.145366 161.04351 
z
" clip-path="url(#p334e36cd6d)" style="fill: #1f77b4; opacity: 0.75"/>
   </g>
   <g id="patch_242">
    <path d="M 871.733439 161.04351 
L 876.321511 161.04351 
L 876.321511 161.04351 
L 871.733439 161.04351 
z
" clip-path="url(#p334e36cd6d)" style="fill: #1f77b4; opacity: 0.75"/>
   </g>
   <g id="patch_243">
    <path d="M 876.321511 161.04351 
L 880.909584 161.04351 
L 880.909584 161.04351 
L 876.321511 161.04351 
z
" clip-path="url(#p334e36cd6d)" style="fill: #1f77b4; opacity: 0.75"/>
   </g>
   <g id="patch_244">
    <path d="M 880.909584 161.04351 
L 885.497657 161.04351 
L 885.497657 161.04351 
L 880.909584 161.04351 
z
" clip-path="url(#p334e36cd6d)" style="fill: #1f77b4; opacity: 0.75"/>
   </g>
   <g id="patch_245">
    <path d="M 885.497657 161.04351 
L 890.085729 161.04351 
L 890.085729 161.04351 
L 885.497657 161.04351 
z
" clip-path="url(#p334e36cd6d)" style="fill: #1f77b4; opacity: 0.75"/>
   </g>
   <g id="patch_246">
    <path d="M 890.085729 161.04351 
L 894.673802 161.04351 
L 894.673802 161.04351 
L 890.085729 161.04351 
z
" clip-path="url(#p334e36cd6d)" style="fill: #1f77b4; opacity: 0.75"/>
   </g>
   <g id="patch_247">
    <path d="M 894.673802 161.04351 
L 899.261874 161.04351 
L 899.261874 161.04351 
L 894.673802 161.04351 
z
" clip-path="url(#p334e36cd6d)" style="fill: #1f77b4; opacity: 0.75"/>
   </g>
   <g id="patch_248">
    <path d="M 899.261874 161.04351 
L 903.849947 161.04351 
L 903.849947 161.04351 
L 899.261874 161.04351 
z
" clip-path="url(#p334e36cd6d)" style="fill: #1f77b4; opacity: 0.75"/>
   </g>
   <g id="patch_249">
    <path d="M 903.849947 161.04351 
L 908.43802 161.04351 
L 908.43802 161.04351 
L 903.849947 161.04351 
z
" clip-path="url(#p334e36cd6d)" style="fill: #1f77b4; opacity: 0.75"/>
   </g>
   <g id="patch_250">
    <path d="M 908.43802 161.04351 
L 913.026092 161.04351 
L 913.026092 161.04351 
L 908.43802 161.04351 
z
" clip-path="url(#p334e36cd6d)" style="fill: #1f77b4; opacity: 0.75"/>
   </g>
   <g id="patch_251">
    <path d="M 913.026092 161.04351 
L 917.614165 161.04351 
L 917.614165 161.04351 
L 913.026092 161.04351 
z
" clip-path="url(#p334e36cd6d)" style="fill: #1f77b4; opacity: 0.75"/>
   </g>
   <g id="patch_252">
    <path d="M 917.614165 161.04351 
L 922.202237 161.04351 
L 922.202237 161.04351 
L 917.614165 161.04351 
z
" clip-path="url(#p334e36cd6d)" style="fill: #1f77b4; opacity: 0.75"/>
   </g>
   <g id="patch_253">
    <path d="M 922.202237 161.04351 
L 926.79031 161.04351 
L 926.79031 161.04351 
L 922.202237 161.04351 
z
" clip-path="url(#p334e36cd6d)" style="fill: #1f77b4; opacity: 0.75"/>
   </g>
   <g id="patch_254">
    <path d="M 926.79031 161.04351 
L 931.378383 161.04351 
L 931.378383 161.04351 
L 926.79031 161.04351 
z
" clip-path="url(#p334e36cd6d)" style="fill: #1f77b4; opacity: 0.75"/>
   </g>
   <g id="patch_255">
    <path d="M 931.378383 161.04351 
L 935.966455 161.04351 
L 935.966455 161.04351 
L 931.378383 161.04351 
z
" clip-path="url(#p334e36cd6d)" style="fill: #1f77b4; opacity: 0.75"/>
   </g>
   <g id="patch_256">
    <path d="M 935.966455 161.04351 
L 940.554528 161.04351 
L 940.554528 161.04351 
L 935.966455 161.04351 
z
" clip-path="url(#p334e36cd6d)" style="fill: #1f77b4; opacity: 0.75"/>
   </g>
   <g id="patch_257">
    <path d="M 940.554528 161.04351 
L 945.1426 161.04351 
L 945.1426 161.04351 
L 940.554528 161.04351 
z
" clip-path="url(#p334e36cd6d)" style="fill: #1f77b4; opacity: 0.75"/>
   </g>
   <g id="patch_258">
    <path d="M 945.1426 161.04351 
L 949.730673 161.04351 
L 949.730673 161.04351 
L 945.1426 161.04351 
z
" clip-path="url(#p334e36cd6d)" style="fill: #1f77b4; opacity: 0.75"/>
   </g>
   <g id="patch_259">
    <path d="M 949.730673 161.04351 
L 954.318746 161.04351 
L 954.318746 161.04351 
L 949.730673 161.04351 
z
" clip-path="url(#p334e36cd6d)" style="fill: #1f77b4; opacity: 0.75"/>
   </g>
   <g id="patch_260">
    <path d="M 954.318746 161.04351 
L 958.906818 161.04351 
L 958.906818 161.04351 
L 954.318746 161.04351 
z
" clip-path="url(#p334e36cd6d)" style="fill: #1f77b4; opacity: 0.75"/>
   </g>
   <g id="patch_261">
    <path d="M 958.906818 161.04351 
L 963.494891 161.04351 
L 963.494891 161.04351 
L 958.906818 161.04351 
z
" clip-path="url(#p334e36cd6d)" style="fill: #1f77b4; opacity: 0.75"/>
   </g>
   <g id="patch_262">
    <path d="M 963.494891 161.04351 
L 968.082963 161.04351 
L 968.082963 161.04351 
L 963.494891 161.04351 
z
" clip-path="url(#p334e36cd6d)" style="fill: #1f77b4; opacity: 0.75"/>
   </g>
   <g id="patch_263">
    <path d="M 968.082963 161.04351 
L 972.671036 161.04351 
L 972.671036 161.04351 
L 968.082963 161.04351 
z
" clip-path="url(#p334e36cd6d)" style="fill: #1f77b4; opacity: 0.75"/>
   </g>
   <g id="patch_264">
    <path d="M 972.671036 161.04351 
L 977.259109 161.04351 
L 977.259109 161.04351 
L 972.671036 161.04351 
z
" clip-path="url(#p334e36cd6d)" style="fill: #1f77b4; opacity: 0.75"/>
   </g>
   <g id="patch_265">
    <path d="M 977.259109 161.04351 
L 981.847181 161.04351 
L 981.847181 161.04351 
L 977.259109 161.04351 
z
" clip-path="url(#p334e36cd6d)" style="fill: #1f77b4; opacity: 0.75"/>
   </g>
   <g id="patch_266">
    <path d="M 981.847181 161.04351 
L 986.435254 161.04351 
L 986.435254 161.04351 
L 981.847181 161.04351 
z
" clip-path="url(#p334e36cd6d)" style="fill: #1f77b4; opacity: 0.75"/>
   </g>
   <g id="patch_267">
    <path d="M 986.435254 161.04351 
L 991.023326 161.04351 
L 991.023326 161.04351 
L 986.435254 161.04351 
z
" clip-path="url(#p334e36cd6d)" style="fill: #1f77b4; opacity: 0.75"/>
   </g>
   <g id="patch_268">
    <path d="M 991.023326 161.04351 
L 995.611399 161.04351 
L 995.611399 161.04351 
L 991.023326 161.04351 
z
" clip-path="url(#p334e36cd6d)" style="fill: #1f77b4; opacity: 0.75"/>
   </g>
   <g id="patch_269">
    <path d="M 995.611399 161.04351 
L 1000.199472 161.04351 
L 1000.199472 161.04351 
L 995.611399 161.04351 
z
" clip-path="url(#p334e36cd6d)" style="fill: #1f77b4; opacity: 0.75"/>
   </g>
   <g id="patch_270">
    <path d="M 1000.199472 161.04351 
L 1004.787544 161.04351 
L 1004.787544 161.04351 
L 1000.199472 161.04351 
z
" clip-path="url(#p334e36cd6d)" style="fill: #1f77b4; opacity: 0.75"/>
   </g>
   <g id="patch_271">
    <path d="M 1004.787544 161.04351 
L 1009.375617 161.04351 
L 1009.375617 161.04351 
L 1004.787544 161.04351 
z
" clip-path="url(#p334e36cd6d)" style="fill: #1f77b4; opacity: 0.75"/>
   </g>
   <g id="patch_272">
    <path d="M 1009.375617 161.04351 
L 1013.96369 161.04351 
L 1013.96369 161.04351 
L 1009.375617 161.04351 
z
" clip-path="url(#p334e36cd6d)" style="fill: #1f77b4; opacity: 0.75"/>
   </g>
   <g id="patch_273">
    <path d="M 1013.96369 161.04351 
L 1018.551762 161.04351 
L 1018.551762 161.04351 
L 1013.96369 161.04351 
z
" clip-path="url(#p334e36cd6d)" style="fill: #1f77b4; opacity: 0.75"/>
   </g>
   <g id="patch_274">
    <path d="M 1018.551762 161.04351 
L 1023.139835 161.04351 
L 1023.139835 161.04351 
L 1018.551762 161.04351 
z
" clip-path="url(#p334e36cd6d)" style="fill: #1f77b4; opacity: 0.75"/>
   </g>
   <g id="patch_275">
    <path d="M 1023.139835 161.04351 
L 1027.727907 161.04351 
L 1027.727907 161.04351 
L 1023.139835 161.04351 
z
" clip-path="url(#p334e36cd6d)" style="fill: #1f77b4; opacity: 0.75"/>
   </g>
   <g id="patch_276">
    <path d="M 1027.727907 161.04351 
L 1032.31598 161.04351 
L 1032.31598 161.04351 
L 1027.727907 161.04351 
z
" clip-path="url(#p334e36cd6d)" style="fill: #1f77b4; opacity: 0.75"/>
   </g>
   <g id="patch_277">
    <path d="M 1032.31598 161.04351 
L 1036.904053 161.04351 
L 1036.904053 161.04351 
L 1032.31598 161.04351 
z
" clip-path="url(#p334e36cd6d)" style="fill: #1f77b4; opacity: 0.75"/>
   </g>
   <g id="patch_278">
    <path d="M 1036.904053 161.04351 
L 1041.492125 161.04351 
L 1041.492125 161.04351 
L 1036.904053 161.04351 
z
" clip-path="url(#p334e36cd6d)" style="fill: #1f77b4; opacity: 0.75"/>
   </g>
   <g id="patch_279">
    <path d="M 1041.492125 161.04351 
L 1046.080198 161.04351 
L 1046.080198 161.04351 
L 1041.492125 161.04351 
z
" clip-path="url(#p334e36cd6d)" style="fill: #1f77b4; opacity: 0.75"/>
   </g>
   <g id="patch_280">
    <path d="M 1046.080198 161.04351 
L 1050.66827 161.04351 
L 1050.66827 161.04351 
L 1046.080198 161.04351 
z
" clip-path="url(#p334e36cd6d)" style="fill: #1f77b4; opacity: 0.75"/>
   </g>
   <g id="patch_281">
    <path d="M 1050.66827 161.04351 
L 1055.256343 161.04351 
L 1055.256343 161.04351 
L 1050.66827 161.04351 
z
" clip-path="url(#p334e36cd6d)" style="fill: #1f77b4; opacity: 0.75"/>
   </g>
   <g id="patch_282">
    <path d="M 1055.256343 161.04351 
L 1059.844416 161.04351 
L 1059.844416 161.04351 
L 1055.256343 161.04351 
z
" clip-path="url(#p334e36cd6d)" style="fill: #1f77b4; opacity: 0.75"/>
   </g>
   <g id="patch_283">
    <path d="M 1059.844416 161.04351 
L 1064.432488 161.04351 
L 1064.432488 161.04351 
L 1059.844416 161.04351 
z
" clip-path="url(#p334e36cd6d)" style="fill: #1f77b4; opacity: 0.75"/>
   </g>
   <g id="patch_284">
    <path d="M 1064.432488 161.04351 
L 1069.020561 161.04351 
L 1069.020561 161.04351 
L 1064.432488 161.04351 
z
" clip-path="url(#p334e36cd6d)" style="fill: #1f77b4; opacity: 0.75"/>
   </g>
   <g id="patch_285">
    <path d="M 1069.020561 161.04351 
L 1073.608633 161.04351 
L 1073.608633 161.04351 
L 1069.020561 161.04351 
z
" clip-path="url(#p334e36cd6d)" style="fill: #1f77b4; opacity: 0.75"/>
   </g>
   <g id="patch_286">
    <path d="M 1073.608633 161.04351 
L 1078.196706 161.04351 
L 1078.196706 161.04351 
L 1073.608633 161.04351 
z
" clip-path="url(#p334e36cd6d)" style="fill: #1f77b4; opacity: 0.75"/>
   </g>
   <g id="patch_287">
    <path d="M 1078.196706 161.04351 
L 1082.784779 161.04351 
L 1082.784779 161.04351 
L 1078.196706 161.04351 
z
" clip-path="url(#p334e36cd6d)" style="fill: #1f77b4; opacity: 0.75"/>
   </g>
   <g id="patch_288">
    <path d="M 1082.784779 161.04351 
L 1087.372851 161.04351 
L 1087.372851 161.04351 
L 1082.784779 161.04351 
z
" clip-path="url(#p334e36cd6d)" style="fill: #1f77b4; opacity: 0.75"/>
   </g>
   <g id="patch_289">
    <path d="M 1087.372851 161.04351 
L 1091.960924 161.04351 
L 1091.960924 161.04351 
L 1087.372851 161.04351 
z
" clip-path="url(#p334e36cd6d)" style="fill: #1f77b4; opacity: 0.75"/>
   </g>
   <g id="patch_290">
    <path d="M 1091.960924 161.04351 
L 1096.548996 161.04351 
L 1096.548996 161.04351 
L 1091.960924 161.04351 
z
" clip-path="url(#p334e36cd6d)" style="fill: #1f77b4; opacity: 0.75"/>
   </g>
   <g id="patch_291">
    <path d="M 1096.548996 161.04351 
L 1101.137069 161.04351 
L 1101.137069 161.04351 
L 1096.548996 161.04351 
z
" clip-path="url(#p334e36cd6d)" style="fill: #1f77b4; opacity: 0.75"/>
   </g>
   <g id="patch_292">
    <path d="M 1101.137069 161.04351 
L 1105.725142 161.04351 
L 1105.725142 161.04351 
L 1101.137069 161.04351 
z
" clip-path="url(#p334e36cd6d)" style="fill: #1f77b4; opacity: 0.75"/>
   </g>
   <g id="patch_293">
    <path d="M 1105.725142 161.04351 
L 1110.313214 161.04351 
L 1110.313214 161.04351 
L 1105.725142 161.04351 
z
" clip-path="url(#p334e36cd6d)" style="fill: #1f77b4; opacity: 0.75"/>
   </g>
   <g id="patch_294">
    <path d="M 1110.313214 161.04351 
L 1114.901287 161.04351 
L 1114.901287 161.04351 
L 1110.313214 161.04351 
z
" clip-path="url(#p334e36cd6d)" style="fill: #1f77b4; opacity: 0.75"/>
   </g>
   <g id="patch_295">
    <path d="M 1114.901287 161.04351 
L 1119.489359 161.04351 
L 1119.489359 161.04351 
L 1114.901287 161.04351 
z
" clip-path="url(#p334e36cd6d)" style="fill: #1f77b4; opacity: 0.75"/>
   </g>
   <g id="patch_296">
    <path d="M 1119.489359 161.04351 
L 1124.077432 161.04351 
L 1124.077432 161.04351 
L 1119.489359 161.04351 
z
" clip-path="url(#p334e36cd6d)" style="fill: #1f77b4; opacity: 0.75"/>
   </g>
   <g id="patch_297">
    <path d="M 1124.077432 161.04351 
L 1128.665505 161.04351 
L 1128.665505 161.04351 
L 1124.077432 161.04351 
z
" clip-path="url(#p334e36cd6d)" style="fill: #1f77b4; opacity: 0.75"/>
   </g>
   <g id="patch_298">
    <path d="M 1128.665505 161.04351 
L 1133.253577 161.04351 
L 1133.253577 161.04351 
L 1128.665505 161.04351 
z
" clip-path="url(#p334e36cd6d)" style="fill: #1f77b4; opacity: 0.75"/>
   </g>
   <g id="patch_299">
    <path d="M 1133.253577 161.04351 
L 1137.84165 161.04351 
L 1137.84165 161.04351 
L 1133.253577 161.04351 
z
" clip-path="url(#p334e36cd6d)" style="fill: #1f77b4; opacity: 0.75"/>
   </g>
   <g id="patch_300">
    <path d="M 1137.84165 161.04351 
L 1142.429723 161.04351 
L 1142.429723 161.04351 
L 1137.84165 161.04351 
z
" clip-path="url(#p334e36cd6d)" style="fill: #1f77b4; opacity: 0.75"/>
   </g>
   <g id="patch_301">
    <path d="M 1142.429723 161.04351 
L 1147.017795 161.04351 
L 1147.017795 161.04351 
L 1142.429723 161.04351 
z
" clip-path="url(#p334e36cd6d)" style="fill: #1f77b4; opacity: 0.75"/>
   </g>
   <g id="patch_302">
    <path d="M 1147.017795 161.04351 
L 1151.605868 161.04351 
L 1151.605868 160.954252 
L 1147.017795 160.954252 
z
" clip-path="url(#p334e36cd6d)" style="fill: #1f77b4; opacity: 0.75"/>
   </g>
   <g id="matplotlib.axis_1">
    <g id="xtick_1">
     <g id="line2d_1">
      <path d="M 39.58149 161.04351 
L 39.58149 18.118365 
" clip-path="url(#p334e36cd6d)" style="fill: none; stroke: #b0b0b0; stroke-width: 0.8; stroke-linecap: square"/>
     </g>
     <g id="line2d_2">
      <defs>
       <path id="ma856b649f4" d="M 0 0 
L 0 3.5 
" style="stroke: #000000; stroke-width: 0.8"/>
      </defs>
      <g>
       <use xlink:href="#ma856b649f4" x="39.58149" y="161.04351" style="stroke: #000000; stroke-width: 0.8"/>
      </g>
     </g>
     <g id="text_1">
      <!-- 20 -->
      <g transform="translate(29.029146 175.641948) scale(0.1 -0.1)">
       <defs>
        <path id="DejaVuSans-2212" d="M 678 2272 
L 4684 2272 
L 4684 1741 
L 678 1741 
L 678 2272 
z
" transform="scale(0.015625)"/>
        <path id="DejaVuSans-32" d="M 1228 531 
L 3431 531 
L 3431 0 
L 469 0 
L 469 531 
Q 828 903 1448 1529 
Q 2069 2156 2228 2338 
Q 2531 2678 2651 2914 
Q 2772 3150 2772 3378 
Q 2772 3750 2511 3984 
Q 2250 4219 1831 4219 
Q 1534 4219 1204 4116 
Q 875 4013 500 3803 
L 500 4441 
Q 881 4594 1212 4672 
Q 1544 4750 1819 4750 
Q 2544 4750 2975 4387 
Q 3406 4025 3406 3419 
Q 3406 3131 3298 2873 
Q 3191 2616 2906 2266 
Q 2828 2175 2409 1742 
Q 1991 1309 1228 531 
z
" transform="scale(0.015625)"/>
        <path id="DejaVuSans-30" d="M 2034 4250 
Q 1547 4250 1301 3770 
Q 1056 3291 1056 2328 
Q 1056 1369 1301 889 
Q 1547 409 2034 409 
Q 2525 409 2770 889 
Q 3016 1369 3016 2328 
Q 3016 3291 2770 3770 
Q 2525 4250 2034 4250 
z
M 2034 4750 
Q 2819 4750 3233 4129 
Q 3647 3509 3647 2328 
Q 3647 1150 3233 529 
Q 2819 -91 2034 -91 
Q 1250 -91 836 529 
Q 422 1150 422 2328 
Q 422 3509 836 4129 
Q 1250 4750 2034 4750 
z
" transform="scale(0.015625)"/>
       </defs>
       <use xlink:href="#DejaVuSans-2212"/>
       <use xlink:href="#DejaVuSans-32" x="83.789062"/>
       <use xlink:href="#DejaVuSans-30" x="147.412109"/>
      </g>
     </g>
    </g>
    <g id="xtick_2">
     <g id="line2d_3">
      <path d="M 78.463461 161.04351 
L 78.463461 18.118365 
" clip-path="url(#p334e36cd6d)" style="fill: none; stroke: #b0b0b0; stroke-width: 0.8; stroke-linecap: square"/>
     </g>
     <g id="line2d_4">
      <g>
       <use xlink:href="#ma856b649f4" x="78.463461" y="161.04351" style="stroke: #000000; stroke-width: 0.8"/>
      </g>
     </g>
     <g id="text_2">
      <!-- 15 -->
      <g transform="translate(67.911117 175.641948) scale(0.1 -0.1)">
       <defs>
        <path id="DejaVuSans-31" d="M 794 531 
L 1825 531 
L 1825 4091 
L 703 3866 
L 703 4441 
L 1819 4666 
L 2450 4666 
L 2450 531 
L 3481 531 
L 3481 0 
L 794 0 
L 794 531 
z
" transform="scale(0.015625)"/>
        <path id="DejaVuSans-35" d="M 691 4666 
L 3169 4666 
L 3169 4134 
L 1269 4134 
L 1269 2991 
Q 1406 3038 1543 3061 
Q 1681 3084 1819 3084 
Q 2600 3084 3056 2656 
Q 3513 2228 3513 1497 
Q 3513 744 3044 326 
Q 2575 -91 1722 -91 
Q 1428 -91 1123 -41 
Q 819 9 494 109 
L 494 744 
Q 775 591 1075 516 
Q 1375 441 1709 441 
Q 2250 441 2565 725 
Q 2881 1009 2881 1497 
Q 2881 1984 2565 2268 
Q 2250 2553 1709 2553 
Q 1456 2553 1204 2497 
Q 953 2441 691 2322 
L 691 4666 
z
" transform="scale(0.015625)"/>
       </defs>
       <use xlink:href="#DejaVuSans-2212"/>
       <use xlink:href="#DejaVuSans-31" x="83.789062"/>
       <use xlink:href="#DejaVuSans-35" x="147.412109"/>
      </g>
     </g>
    </g>
    <g id="xtick_3">
     <g id="line2d_5">
      <path d="M 117.345433 161.04351 
L 117.345433 18.118365 
" clip-path="url(#p334e36cd6d)" style="fill: none; stroke: #b0b0b0; stroke-width: 0.8; stroke-linecap: square"/>
     </g>
     <g id="line2d_6">
      <g>
       <use xlink:href="#ma856b649f4" x="117.345433" y="161.04351" style="stroke: #000000; stroke-width: 0.8"/>
      </g>
     </g>
     <g id="text_3">
      <!-- 10 -->
      <g transform="translate(106.793089 175.641948) scale(0.1 -0.1)">
       <use xlink:href="#DejaVuSans-2212"/>
       <use xlink:href="#DejaVuSans-31" x="83.789062"/>
       <use xlink:href="#DejaVuSans-30" x="147.412109"/>
      </g>
     </g>
    </g>
    <g id="xtick_4">
     <g id="line2d_7">
      <path d="M 156.227404 161.04351 
L 156.227404 18.118365 
" clip-path="url(#p334e36cd6d)" style="fill: none; stroke: #b0b0b0; stroke-width: 0.8; stroke-linecap: square"/>
     </g>
     <g id="line2d_8">
      <g>
       <use xlink:href="#ma856b649f4" x="156.227404" y="161.04351" style="stroke: #000000; stroke-width: 0.8"/>
      </g>
     </g>
     <g id="text_4">
      <!-- 5 -->
      <g transform="translate(148.85631 175.641948) scale(0.1 -0.1)">
       <use xlink:href="#DejaVuSans-2212"/>
       <use xlink:href="#DejaVuSans-35" x="83.789062"/>
      </g>
     </g>
    </g>
    <g id="xtick_5">
     <g id="line2d_9">
      <path d="M 195.109375 161.04351 
L 195.109375 18.118365 
" clip-path="url(#p334e36cd6d)" style="fill: none; stroke: #b0b0b0; stroke-width: 0.8; stroke-linecap: square"/>
     </g>
     <g id="line2d_10">
      <g>
       <use xlink:href="#ma856b649f4" x="195.109375" y="161.04351" style="stroke: #000000; stroke-width: 0.8"/>
      </g>
     </g>
     <g id="text_5">
      <!-- 0 -->
      <g transform="translate(191.928125 175.641948) scale(0.1 -0.1)">
       <use xlink:href="#DejaVuSans-30"/>
      </g>
     </g>
    </g>
    <g id="xtick_6">
     <g id="line2d_11">
      <path d="M 233.991346 161.04351 
L 233.991346 18.118365 
" clip-path="url(#p334e36cd6d)" style="fill: none; stroke: #b0b0b0; stroke-width: 0.8; stroke-linecap: square"/>
     </g>
     <g id="line2d_12">
      <g>
       <use xlink:href="#ma856b649f4" x="233.991346" y="161.04351" style="stroke: #000000; stroke-width: 0.8"/>
      </g>
     </g>
     <g id="text_6">
      <!-- 5 -->
      <g transform="translate(230.810096 175.641948) scale(0.1 -0.1)">
       <use xlink:href="#DejaVuSans-35"/>
      </g>
     </g>
    </g>
    <g id="xtick_7">
     <g id="line2d_13">
      <path d="M 272.873318 161.04351 
L 272.873318 18.118365 
" clip-path="url(#p334e36cd6d)" style="fill: none; stroke: #b0b0b0; stroke-width: 0.8; stroke-linecap: square"/>
     </g>
     <g id="line2d_14">
      <g>
       <use xlink:href="#ma856b649f4" x="272.873318" y="161.04351" style="stroke: #000000; stroke-width: 0.8"/>
      </g>
     </g>
     <g id="text_7">
      <!-- 10 -->
      <g transform="translate(266.510818 175.641948) scale(0.1 -0.1)">
       <use xlink:href="#DejaVuSans-31"/>
       <use xlink:href="#DejaVuSans-30" x="63.623047"/>
      </g>
     </g>
    </g>
    <g id="xtick_8">
     <g id="line2d_15">
      <path d="M 311.755289 161.04351 
L 311.755289 18.118365 
" clip-path="url(#p334e36cd6d)" style="fill: none; stroke: #b0b0b0; stroke-width: 0.8; stroke-linecap: square"/>
     </g>
     <g id="line2d_16">
      <g>
       <use xlink:href="#ma856b649f4" x="311.755289" y="161.04351" style="stroke: #000000; stroke-width: 0.8"/>
      </g>
     </g>
     <g id="text_8">
      <!-- 15 -->
      <g transform="translate(305.392789 175.641948) scale(0.1 -0.1)">
       <use xlink:href="#DejaVuSans-31"/>
       <use xlink:href="#DejaVuSans-35" x="63.623047"/>
      </g>
     </g>
    </g>
    <g id="xtick_9">
     <g id="line2d_17">
      <path d="M 350.63726 161.04351 
L 350.63726 18.118365 
" clip-path="url(#p334e36cd6d)" style="fill: none; stroke: #b0b0b0; stroke-width: 0.8; stroke-linecap: square"/>
     </g>
     <g id="line2d_18">
      <g>
       <use xlink:href="#ma856b649f4" x="350.63726" y="161.04351" style="stroke: #000000; stroke-width: 0.8"/>
      </g>
     </g>
     <g id="text_9">
      <!-- 20 -->
      <g transform="translate(344.27476 175.641948) scale(0.1 -0.1)">
       <use xlink:href="#DejaVuSans-32"/>
       <use xlink:href="#DejaVuSans-30" x="63.623047"/>
      </g>
     </g>
    </g>
    <g id="text_10">
     <!-- distance [nt] -->
     <g transform="translate(163.303125 189.320073) scale(0.1 -0.1)">
      <defs>
       <path id="DejaVuSans-64" d="M 2906 2969 
L 2906 4863 
L 3481 4863 
L 3481 0 
L 2906 0 
L 2906 525 
Q 2725 213 2448 61 
Q 2172 -91 1784 -91 
Q 1150 -91 751 415 
Q 353 922 353 1747 
Q 353 2572 751 3078 
Q 1150 3584 1784 3584 
Q 2172 3584 2448 3432 
Q 2725 3281 2906 2969 
z
M 947 1747 
Q 947 1113 1208 752 
Q 1469 391 1925 391 
Q 2381 391 2643 752 
Q 2906 1113 2906 1747 
Q 2906 2381 2643 2742 
Q 2381 3103 1925 3103 
Q 1469 3103 1208 2742 
Q 947 2381 947 1747 
z
" transform="scale(0.015625)"/>
       <path id="DejaVuSans-69" d="M 603 3500 
L 1178 3500 
L 1178 0 
L 603 0 
L 603 3500 
z
M 603 4863 
L 1178 4863 
L 1178 4134 
L 603 4134 
L 603 4863 
z
" transform="scale(0.015625)"/>
       <path id="DejaVuSans-73" d="M 2834 3397 
L 2834 2853 
Q 2591 2978 2328 3040 
Q 2066 3103 1784 3103 
Q 1356 3103 1142 2972 
Q 928 2841 928 2578 
Q 928 2378 1081 2264 
Q 1234 2150 1697 2047 
L 1894 2003 
Q 2506 1872 2764 1633 
Q 3022 1394 3022 966 
Q 3022 478 2636 193 
Q 2250 -91 1575 -91 
Q 1294 -91 989 -36 
Q 684 19 347 128 
L 347 722 
Q 666 556 975 473 
Q 1284 391 1588 391 
Q 1994 391 2212 530 
Q 2431 669 2431 922 
Q 2431 1156 2273 1281 
Q 2116 1406 1581 1522 
L 1381 1569 
Q 847 1681 609 1914 
Q 372 2147 372 2553 
Q 372 3047 722 3315 
Q 1072 3584 1716 3584 
Q 2034 3584 2315 3537 
Q 2597 3491 2834 3397 
z
" transform="scale(0.015625)"/>
       <path id="DejaVuSans-74" d="M 1172 4494 
L 1172 3500 
L 2356 3500 
L 2356 3053 
L 1172 3053 
L 1172 1153 
Q 1172 725 1289 603 
Q 1406 481 1766 481 
L 2356 481 
L 2356 0 
L 1766 0 
Q 1100 0 847 248 
Q 594 497 594 1153 
L 594 3053 
L 172 3053 
L 172 3500 
L 594 3500 
L 594 4494 
L 1172 4494 
z
" transform="scale(0.015625)"/>
       <path id="DejaVuSans-61" d="M 2194 1759 
Q 1497 1759 1228 1600 
Q 959 1441 959 1056 
Q 959 750 1161 570 
Q 1363 391 1709 391 
Q 2188 391 2477 730 
Q 2766 1069 2766 1631 
L 2766 1759 
L 2194 1759 
z
M 3341 1997 
L 3341 0 
L 2766 0 
L 2766 531 
Q 2569 213 2275 61 
Q 1981 -91 1556 -91 
Q 1019 -91 701 211 
Q 384 513 384 1019 
Q 384 1609 779 1909 
Q 1175 2209 1959 2209 
L 2766 2209 
L 2766 2266 
Q 2766 2663 2505 2880 
Q 2244 3097 1772 3097 
Q 1472 3097 1187 3025 
Q 903 2953 641 2809 
L 641 3341 
Q 956 3463 1253 3523 
Q 1550 3584 1831 3584 
Q 2591 3584 2966 3190 
Q 3341 2797 3341 1997 
z
" transform="scale(0.015625)"/>
       <path id="DejaVuSans-6e" d="M 3513 2113 
L 3513 0 
L 2938 0 
L 2938 2094 
Q 2938 2591 2744 2837 
Q 2550 3084 2163 3084 
Q 1697 3084 1428 2787 
Q 1159 2491 1159 1978 
L 1159 0 
L 581 0 
L 581 3500 
L 1159 3500 
L 1159 2956 
Q 1366 3272 1645 3428 
Q 1925 3584 2291 3584 
Q 2894 3584 3203 3211 
Q 3513 2838 3513 2113 
z
" transform="scale(0.015625)"/>
       <path id="DejaVuSans-63" d="M 3122 3366 
L 3122 2828 
Q 2878 2963 2633 3030 
Q 2388 3097 2138 3097 
Q 1578 3097 1268 2742 
Q 959 2388 959 1747 
Q 959 1106 1268 751 
Q 1578 397 2138 397 
Q 2388 397 2633 464 
Q 2878 531 3122 666 
L 3122 134 
Q 2881 22 2623 -34 
Q 2366 -91 2075 -91 
Q 1284 -91 818 406 
Q 353 903 353 1747 
Q 353 2603 823 3093 
Q 1294 3584 2113 3584 
Q 2378 3584 2631 3529 
Q 2884 3475 3122 3366 
z
" transform="scale(0.015625)"/>
       <path id="DejaVuSans-65" d="M 3597 1894 
L 3597 1613 
L 953 1613 
Q 991 1019 1311 708 
Q 1631 397 2203 397 
Q 2534 397 2845 478 
Q 3156 559 3463 722 
L 3463 178 
Q 3153 47 2828 -22 
Q 2503 -91 2169 -91 
Q 1331 -91 842 396 
Q 353 884 353 1716 
Q 353 2575 817 3079 
Q 1281 3584 2069 3584 
Q 2775 3584 3186 3129 
Q 3597 2675 3597 1894 
z
M 3022 2063 
Q 3016 2534 2758 2815 
Q 2500 3097 2075 3097 
Q 1594 3097 1305 2825 
Q 1016 2553 972 2059 
L 3022 2063 
z
" transform="scale(0.015625)"/>
       <path id="DejaVuSans-20" transform="scale(0.015625)"/>
       <path id="DejaVuSans-5b" d="M 550 4863 
L 1875 4863 
L 1875 4416 
L 1125 4416 
L 1125 -397 
L 1875 -397 
L 1875 -844 
L 550 -844 
L 550 4863 
z
" transform="scale(0.015625)"/>
       <path id="DejaVuSans-5d" d="M 1947 4863 
L 1947 -844 
L 622 -844 
L 622 -397 
L 1369 -397 
L 1369 4416 
L 622 4416 
L 622 4863 
L 1947 4863 
z
" transform="scale(0.015625)"/>
      </defs>
      <use xlink:href="#DejaVuSans-64"/>
      <use xlink:href="#DejaVuSans-69" x="63.476562"/>
      <use xlink:href="#DejaVuSans-73" x="91.259766"/>
      <use xlink:href="#DejaVuSans-74" x="143.359375"/>
      <use xlink:href="#DejaVuSans-61" x="182.568359"/>
      <use xlink:href="#DejaVuSans-6e" x="243.847656"/>
      <use xlink:href="#DejaVuSans-63" x="307.226562"/>
      <use xlink:href="#DejaVuSans-65" x="362.207031"/>
      <use xlink:href="#DejaVuSans-20" x="423.730469"/>
      <use xlink:href="#DejaVuSans-5b" x="455.517578"/>
      <use xlink:href="#DejaVuSans-6e" x="494.53125"/>
      <use xlink:href="#DejaVuSans-74" x="557.910156"/>
      <use xlink:href="#DejaVuSans-5d" x="597.119141"/>
     </g>
    </g>
   </g>
   <g id="matplotlib.axis_2">
    <g id="ytick_1">
     <g id="line2d_19">
      <path d="M 39.58149 161.04351 
L 350.63726 161.04351 
" clip-path="url(#p334e36cd6d)" style="fill: none; stroke: #b0b0b0; stroke-width: 0.8; stroke-linecap: square"/>
     </g>
     <g id="line2d_20">
      <defs>
       <path id="mbf8e420f82" d="M 0 0 
L -3.5 0 
" style="stroke: #000000; stroke-width: 0.8"/>
      </defs>
      <g>
       <use xlink:href="#mbf8e420f82" x="39.58149" y="161.04351" style="stroke: #000000; stroke-width: 0.8"/>
      </g>
     </g>
     <g id="text_11">
      <!-- 0.0 -->
      <g transform="translate(16.678365 164.842729) scale(0.1 -0.1)">
       <defs>
        <path id="DejaVuSans-2e" d="M 684 794 
L 1344 794 
L 1344 0 
L 684 0 
L 684 794 
z
" transform="scale(0.015625)"/>
       </defs>
       <use xlink:href="#DejaVuSans-30"/>
       <use xlink:href="#DejaVuSans-2e" x="63.623047"/>
       <use xlink:href="#DejaVuSans-30" x="95.410156"/>
      </g>
     </g>
    </g>
    <g id="ytick_2">
     <g id="line2d_21">
      <path d="M 39.58149 131.447182 
L 350.63726 131.447182 
" clip-path="url(#p334e36cd6d)" style="fill: none; stroke: #b0b0b0; stroke-width: 0.8; stroke-linecap: square"/>
     </g>
     <g id="line2d_22">
      <g>
       <use xlink:href="#mbf8e420f82" x="39.58149" y="131.447182" style="stroke: #000000; stroke-width: 0.8"/>
      </g>
     </g>
     <g id="text_12">
      <!-- 0.2 -->
      <g transform="translate(16.678365 135.246401) scale(0.1 -0.1)">
       <use xlink:href="#DejaVuSans-30"/>
       <use xlink:href="#DejaVuSans-2e" x="63.623047"/>
       <use xlink:href="#DejaVuSans-32" x="95.410156"/>
      </g>
     </g>
    </g>
    <g id="ytick_3">
     <g id="line2d_23">
      <path d="M 39.58149 101.850855 
L 350.63726 101.850855 
" clip-path="url(#p334e36cd6d)" style="fill: none; stroke: #b0b0b0; stroke-width: 0.8; stroke-linecap: square"/>
     </g>
     <g id="line2d_24">
      <g>
       <use xlink:href="#mbf8e420f82" x="39.58149" y="101.850855" style="stroke: #000000; stroke-width: 0.8"/>
      </g>
     </g>
     <g id="text_13">
      <!-- 0.4 -->
      <g transform="translate(16.678365 105.650074) scale(0.1 -0.1)">
       <defs>
        <path id="DejaVuSans-34" d="M 2419 4116 
L 825 1625 
L 2419 1625 
L 2419 4116 
z
M 2253 4666 
L 3047 4666 
L 3047 1625 
L 3713 1625 
L 3713 1100 
L 3047 1100 
L 3047 0 
L 2419 0 
L 2419 1100 
L 313 1100 
L 313 1709 
L 2253 4666 
z
" transform="scale(0.015625)"/>
       </defs>
       <use xlink:href="#DejaVuSans-30"/>
       <use xlink:href="#DejaVuSans-2e" x="63.623047"/>
       <use xlink:href="#DejaVuSans-34" x="95.410156"/>
      </g>
     </g>
    </g>
    <g id="ytick_4">
     <g id="line2d_25">
      <path d="M 39.58149 72.254527 
L 350.63726 72.254527 
" clip-path="url(#p334e36cd6d)" style="fill: none; stroke: #b0b0b0; stroke-width: 0.8; stroke-linecap: square"/>
     </g>
     <g id="line2d_26">
      <g>
       <use xlink:href="#mbf8e420f82" x="39.58149" y="72.254527" style="stroke: #000000; stroke-width: 0.8"/>
      </g>
     </g>
     <g id="text_14">
      <!-- 0.6 -->
      <g transform="translate(16.678365 76.053746) scale(0.1 -0.1)">
       <defs>
        <path id="DejaVuSans-36" d="M 2113 2584 
Q 1688 2584 1439 2293 
Q 1191 2003 1191 1497 
Q 1191 994 1439 701 
Q 1688 409 2113 409 
Q 2538 409 2786 701 
Q 3034 994 3034 1497 
Q 3034 2003 2786 2293 
Q 2538 2584 2113 2584 
z
M 3366 4563 
L 3366 3988 
Q 3128 4100 2886 4159 
Q 2644 4219 2406 4219 
Q 1781 4219 1451 3797 
Q 1122 3375 1075 2522 
Q 1259 2794 1537 2939 
Q 1816 3084 2150 3084 
Q 2853 3084 3261 2657 
Q 3669 2231 3669 1497 
Q 3669 778 3244 343 
Q 2819 -91 2113 -91 
Q 1303 -91 875 529 
Q 447 1150 447 2328 
Q 447 3434 972 4092 
Q 1497 4750 2381 4750 
Q 2619 4750 2861 4703 
Q 3103 4656 3366 4563 
z
" transform="scale(0.015625)"/>
       </defs>
       <use xlink:href="#DejaVuSans-30"/>
       <use xlink:href="#DejaVuSans-2e" x="63.623047"/>
       <use xlink:href="#DejaVuSans-36" x="95.410156"/>
      </g>
     </g>
    </g>
    <g id="ytick_5">
     <g id="line2d_27">
      <path d="M 39.58149 42.6582 
L 350.63726 42.6582 
" clip-path="url(#p334e36cd6d)" style="fill: none; stroke: #b0b0b0; stroke-width: 0.8; stroke-linecap: square"/>
     </g>
     <g id="line2d_28">
      <g>
       <use xlink:href="#mbf8e420f82" x="39.58149" y="42.6582" style="stroke: #000000; stroke-width: 0.8"/>
      </g>
     </g>
     <g id="text_15">
      <!-- 0.8 -->
      <g transform="translate(16.678365 46.457418) scale(0.1 -0.1)">
       <defs>
        <path id="DejaVuSans-38" d="M 2034 2216 
Q 1584 2216 1326 1975 
Q 1069 1734 1069 1313 
Q 1069 891 1326 650 
Q 1584 409 2034 409 
Q 2484 409 2743 651 
Q 3003 894 3003 1313 
Q 3003 1734 2745 1975 
Q 2488 2216 2034 2216 
z
M 1403 2484 
Q 997 2584 770 2862 
Q 544 3141 544 3541 
Q 544 4100 942 4425 
Q 1341 4750 2034 4750 
Q 2731 4750 3128 4425 
Q 3525 4100 3525 3541 
Q 3525 3141 3298 2862 
Q 3072 2584 2669 2484 
Q 3125 2378 3379 2068 
Q 3634 1759 3634 1313 
Q 3634 634 3220 271 
Q 2806 -91 2034 -91 
Q 1263 -91 848 271 
Q 434 634 434 1313 
Q 434 1759 690 2068 
Q 947 2378 1403 2484 
z
M 1172 3481 
Q 1172 3119 1398 2916 
Q 1625 2713 2034 2713 
Q 2441 2713 2670 2916 
Q 2900 3119 2900 3481 
Q 2900 3844 2670 4047 
Q 2441 4250 2034 4250 
Q 1625 4250 1398 4047 
Q 1172 3844 1172 3481 
z
" transform="scale(0.015625)"/>
       </defs>
       <use xlink:href="#DejaVuSans-30"/>
       <use xlink:href="#DejaVuSans-2e" x="63.623047"/>
       <use xlink:href="#DejaVuSans-38" x="95.410156"/>
      </g>
     </g>
    </g>
    <g id="text_16">
     <!-- Probability -->
     <g transform="translate(10.598677 116.009844) rotate(-90) scale(0.1 -0.1)">
      <defs>
       <path id="DejaVuSans-50" d="M 1259 4147 
L 1259 2394 
L 2053 2394 
Q 2494 2394 2734 2622 
Q 2975 2850 2975 3272 
Q 2975 3691 2734 3919 
Q 2494 4147 2053 4147 
L 1259 4147 
z
M 628 4666 
L 2053 4666 
Q 2838 4666 3239 4311 
Q 3641 3956 3641 3272 
Q 3641 2581 3239 2228 
Q 2838 1875 2053 1875 
L 1259 1875 
L 1259 0 
L 628 0 
L 628 4666 
z
" transform="scale(0.015625)"/>
       <path id="DejaVuSans-72" d="M 2631 2963 
Q 2534 3019 2420 3045 
Q 2306 3072 2169 3072 
Q 1681 3072 1420 2755 
Q 1159 2438 1159 1844 
L 1159 0 
L 581 0 
L 581 3500 
L 1159 3500 
L 1159 2956 
Q 1341 3275 1631 3429 
Q 1922 3584 2338 3584 
Q 2397 3584 2469 3576 
Q 2541 3569 2628 3553 
L 2631 2963 
z
" transform="scale(0.015625)"/>
       <path id="DejaVuSans-6f" d="M 1959 3097 
Q 1497 3097 1228 2736 
Q 959 2375 959 1747 
Q 959 1119 1226 758 
Q 1494 397 1959 397 
Q 2419 397 2687 759 
Q 2956 1122 2956 1747 
Q 2956 2369 2687 2733 
Q 2419 3097 1959 3097 
z
M 1959 3584 
Q 2709 3584 3137 3096 
Q 3566 2609 3566 1747 
Q 3566 888 3137 398 
Q 2709 -91 1959 -91 
Q 1206 -91 779 398 
Q 353 888 353 1747 
Q 353 2609 779 3096 
Q 1206 3584 1959 3584 
z
" transform="scale(0.015625)"/>
       <path id="DejaVuSans-62" d="M 3116 1747 
Q 3116 2381 2855 2742 
Q 2594 3103 2138 3103 
Q 1681 3103 1420 2742 
Q 1159 2381 1159 1747 
Q 1159 1113 1420 752 
Q 1681 391 2138 391 
Q 2594 391 2855 752 
Q 3116 1113 3116 1747 
z
M 1159 2969 
Q 1341 3281 1617 3432 
Q 1894 3584 2278 3584 
Q 2916 3584 3314 3078 
Q 3713 2572 3713 1747 
Q 3713 922 3314 415 
Q 2916 -91 2278 -91 
Q 1894 -91 1617 61 
Q 1341 213 1159 525 
L 1159 0 
L 581 0 
L 581 4863 
L 1159 4863 
L 1159 2969 
z
" transform="scale(0.015625)"/>
       <path id="DejaVuSans-6c" d="M 603 4863 
L 1178 4863 
L 1178 0 
L 603 0 
L 603 4863 
z
" transform="scale(0.015625)"/>
       <path id="DejaVuSans-79" d="M 2059 -325 
Q 1816 -950 1584 -1140 
Q 1353 -1331 966 -1331 
L 506 -1331 
L 506 -850 
L 844 -850 
Q 1081 -850 1212 -737 
Q 1344 -625 1503 -206 
L 1606 56 
L 191 3500 
L 800 3500 
L 1894 763 
L 2988 3500 
L 3597 3500 
L 2059 -325 
z
" transform="scale(0.015625)"/>
      </defs>
      <use xlink:href="#DejaVuSans-50"/>
      <use xlink:href="#DejaVuSans-72" x="58.552734"/>
      <use xlink:href="#DejaVuSans-6f" x="97.416016"/>
      <use xlink:href="#DejaVuSans-62" x="158.597656"/>
      <use xlink:href="#DejaVuSans-61" x="222.074219"/>
      <use xlink:href="#DejaVuSans-62" x="283.353516"/>
      <use xlink:href="#DejaVuSans-69" x="346.830078"/>
      <use xlink:href="#DejaVuSans-6c" x="374.613281"/>
      <use xlink:href="#DejaVuSans-69" x="402.396484"/>
      <use xlink:href="#DejaVuSans-74" x="430.179688"/>
      <use xlink:href="#DejaVuSans-79" x="469.388672"/>
     </g>
    </g>
   </g>
   <g id="patch_303">
    <path d="M 39.58149 161.04351 
L 39.58149 18.118365 
" style="fill: none; stroke: #000000; stroke-width: 0.8; stroke-linejoin: miter; stroke-linecap: square"/>
   </g>
   <g id="patch_304">
    <path d="M 350.63726 161.04351 
L 350.63726 18.118365 
" style="fill: none; stroke: #000000; stroke-width: 0.8; stroke-linejoin: miter; stroke-linecap: square"/>
   </g>
   <g id="patch_305">
    <path d="M 39.58149 161.04351 
L 350.63726 161.04351 
" style="fill: none; stroke: #000000; stroke-width: 0.8; stroke-linejoin: miter; stroke-linecap: square"/>
   </g>
   <g id="patch_306">
    <path d="M 39.58149 18.118365 
L 350.63726 18.118365 
" style="fill: none; stroke: #000000; stroke-width: 0.8; stroke-linejoin: miter; stroke-linecap: square"/>
   </g>
   <g id="text_17">
    <!-- Distance to the true 3' end -->
    <g transform="translate(114.386875 12.118365) scale(0.12 -0.12)">
     <defs>
      <path id="DejaVuSans-44" d="M 1259 4147 
L 1259 519 
L 2022 519 
Q 2988 519 3436 956 
Q 3884 1394 3884 2338 
Q 3884 3275 3436 3711 
Q 2988 4147 2022 4147 
L 1259 4147 
z
M 628 4666 
L 1925 4666 
Q 3281 4666 3915 4102 
Q 4550 3538 4550 2338 
Q 4550 1131 3912 565 
Q 3275 0 1925 0 
L 628 0 
L 628 4666 
z
" transform="scale(0.015625)"/>
      <path id="DejaVuSans-68" d="M 3513 2113 
L 3513 0 
L 2938 0 
L 2938 2094 
Q 2938 2591 2744 2837 
Q 2550 3084 2163 3084 
Q 1697 3084 1428 2787 
Q 1159 2491 1159 1978 
L 1159 0 
L 581 0 
L 581 4863 
L 1159 4863 
L 1159 2956 
Q 1366 3272 1645 3428 
Q 1925 3584 2291 3584 
Q 2894 3584 3203 3211 
Q 3513 2838 3513 2113 
z
" transform="scale(0.015625)"/>
      <path id="DejaVuSans-75" d="M 544 1381 
L 544 3500 
L 1119 3500 
L 1119 1403 
Q 1119 906 1312 657 
Q 1506 409 1894 409 
Q 2359 409 2629 706 
Q 2900 1003 2900 1516 
L 2900 3500 
L 3475 3500 
L 3475 0 
L 2900 0 
L 2900 538 
Q 2691 219 2414 64 
Q 2138 -91 1772 -91 
Q 1169 -91 856 284 
Q 544 659 544 1381 
z
M 1991 3584 
L 1991 3584 
z
" transform="scale(0.015625)"/>
      <path id="DejaVuSans-33" d="M 2597 2516 
Q 3050 2419 3304 2112 
Q 3559 1806 3559 1356 
Q 3559 666 3084 287 
Q 2609 -91 1734 -91 
Q 1441 -91 1130 -33 
Q 819 25 488 141 
L 488 750 
Q 750 597 1062 519 
Q 1375 441 1716 441 
Q 2309 441 2620 675 
Q 2931 909 2931 1356 
Q 2931 1769 2642 2001 
Q 2353 2234 1838 2234 
L 1294 2234 
L 1294 2753 
L 1863 2753 
Q 2328 2753 2575 2939 
Q 2822 3125 2822 3475 
Q 2822 3834 2567 4026 
Q 2313 4219 1838 4219 
Q 1578 4219 1281 4162 
Q 984 4106 628 3988 
L 628 4550 
Q 988 4650 1302 4700 
Q 1616 4750 1894 4750 
Q 2613 4750 3031 4423 
Q 3450 4097 3450 3541 
Q 3450 3153 3228 2886 
Q 3006 2619 2597 2516 
z
" transform="scale(0.015625)"/>
      <path id="DejaVuSans-27" d="M 1147 4666 
L 1147 2931 
L 616 2931 
L 616 4666 
L 1147 4666 
z
" transform="scale(0.015625)"/>
     </defs>
     <use xlink:href="#DejaVuSans-44"/>
     <use xlink:href="#DejaVuSans-69" x="77.001953"/>
     <use xlink:href="#DejaVuSans-73" x="104.785156"/>
     <use xlink:href="#DejaVuSans-74" x="156.884766"/>
     <use xlink:href="#DejaVuSans-61" x="196.09375"/>
     <use xlink:href="#DejaVuSans-6e" x="257.373047"/>
     <use xlink:href="#DejaVuSans-63" x="320.751953"/>
     <use xlink:href="#DejaVuSans-65" x="375.732422"/>
     <use xlink:href="#DejaVuSans-20" x="437.255859"/>
     <use xlink:href="#DejaVuSans-74" x="469.042969"/>
     <use xlink:href="#DejaVuSans-6f" x="508.251953"/>
     <use xlink:href="#DejaVuSans-20" x="569.433594"/>
     <use xlink:href="#DejaVuSans-74" x="601.220703"/>
     <use xlink:href="#DejaVuSans-68" x="640.429688"/>
     <use xlink:href="#DejaVuSans-65" x="703.808594"/>
     <use xlink:href="#DejaVuSans-20" x="765.332031"/>
     <use xlink:href="#DejaVuSans-74" x="797.119141"/>
     <use xlink:href="#DejaVuSans-72" x="836.328125"/>
     <use xlink:href="#DejaVuSans-75" x="877.441406"/>
     <use xlink:href="#DejaVuSans-65" x="940.820312"/>
     <use xlink:href="#DejaVuSans-20" x="1002.34375"/>
     <use xlink:href="#DejaVuSans-33" x="1034.130859"/>
     <use xlink:href="#DejaVuSans-27" x="1097.753906"/>
     <use xlink:href="#DejaVuSans-20" x="1125.244141"/>
     <use xlink:href="#DejaVuSans-65" x="1157.03125"/>
     <use xlink:href="#DejaVuSans-6e" x="1218.554688"/>
     <use xlink:href="#DejaVuSans-64" x="1281.933594"/>
    </g>
   </g>
  </g>
 </g>
 <defs>
  <clipPath id="p334e36cd6d">
   <rect x="39.58149" y="18.118365" width="311.05577" height="142.925145"/>
  </clipPath>
 </defs>
</svg>
